%TF.GenerationSoftware,KiCad,Pcbnew,(6.0.8)*%
%TF.CreationDate,2023-03-18T14:47:44-05:00*%
%TF.ProjectId,board1,626f6172-6431-42e6-9b69-6361645f7063,rev?*%
%TF.SameCoordinates,Original*%
%TF.FileFunction,Legend,Top*%
%TF.FilePolarity,Positive*%
%FSLAX46Y46*%
G04 Gerber Fmt 4.6, Leading zero omitted, Abs format (unit mm)*
G04 Created by KiCad (PCBNEW (6.0.8)) date 2023-03-18 14:47:44*
%MOMM*%
%LPD*%
G01*
G04 APERTURE LIST*
G04 Aperture macros list*
%AMRoundRect*
0 Rectangle with rounded corners*
0 $1 Rounding radius*
0 $2 $3 $4 $5 $6 $7 $8 $9 X,Y pos of 4 corners*
0 Add a 4 corners polygon primitive as box body*
4,1,4,$2,$3,$4,$5,$6,$7,$8,$9,$2,$3,0*
0 Add four circle primitives for the rounded corners*
1,1,$1+$1,$2,$3*
1,1,$1+$1,$4,$5*
1,1,$1+$1,$6,$7*
1,1,$1+$1,$8,$9*
0 Add four rect primitives between the rounded corners*
20,1,$1+$1,$2,$3,$4,$5,0*
20,1,$1+$1,$4,$5,$6,$7,0*
20,1,$1+$1,$6,$7,$8,$9,0*
20,1,$1+$1,$8,$9,$2,$3,0*%
G04 Aperture macros list end*
%ADD10C,1.345000*%
%ADD11C,0.150000*%
%ADD12C,0.120000*%
%ADD13C,1.700000*%
%ADD14R,1.700000X1.700000*%
%ADD15O,1.700000X1.700000*%
%ADD16RoundRect,0.250000X-0.262500X-0.450000X0.262500X-0.450000X0.262500X0.450000X-0.262500X0.450000X0*%
%ADD17R,3.800000X3.800000*%
%ADD18C,3.800000*%
%ADD19RoundRect,0.250000X-0.450000X0.262500X-0.450000X-0.262500X0.450000X-0.262500X0.450000X0.262500X0*%
%ADD20RoundRect,0.150000X-0.150000X-0.625000X0.150000X-0.625000X0.150000X0.625000X-0.150000X0.625000X0*%
%ADD21RoundRect,0.250000X-0.350000X-0.650000X0.350000X-0.650000X0.350000X0.650000X-0.350000X0.650000X0*%
%ADD22RoundRect,0.150000X0.150000X0.625000X-0.150000X0.625000X-0.150000X-0.625000X0.150000X-0.625000X0*%
%ADD23RoundRect,0.250000X0.350000X0.650000X-0.350000X0.650000X-0.350000X-0.650000X0.350000X-0.650000X0*%
G04 APERTURE END LIST*
D10*
X82497500Y-47967500D02*
G75*
G03*
X82497500Y-47967500I-672500J0D01*
G01*
D11*
X133598809Y-38144880D02*
X134170238Y-38144880D01*
X133884523Y-39144880D02*
X133884523Y-38144880D01*
X134694047Y-38144880D02*
X134884523Y-38144880D01*
X134979761Y-38192500D01*
X135075000Y-38287738D01*
X135122619Y-38478214D01*
X135122619Y-38811547D01*
X135075000Y-39002023D01*
X134979761Y-39097261D01*
X134884523Y-39144880D01*
X134694047Y-39144880D01*
X134598809Y-39097261D01*
X134503571Y-39002023D01*
X134455952Y-38811547D01*
X134455952Y-38478214D01*
X134503571Y-38287738D01*
X134598809Y-38192500D01*
X134694047Y-38144880D01*
X135884523Y-38621071D02*
X135551190Y-38621071D01*
X135551190Y-39144880D02*
X135551190Y-38144880D01*
X136027380Y-38144880D01*
X136170238Y-39240119D02*
X136932142Y-39240119D01*
X137075000Y-38144880D02*
X137741666Y-39144880D01*
X137741666Y-38144880D02*
X137075000Y-39144880D01*
X138075000Y-39097261D02*
X138217857Y-39144880D01*
X138455952Y-39144880D01*
X138551190Y-39097261D01*
X138598809Y-39049642D01*
X138646428Y-38954404D01*
X138646428Y-38859166D01*
X138598809Y-38763928D01*
X138551190Y-38716309D01*
X138455952Y-38668690D01*
X138265476Y-38621071D01*
X138170238Y-38573452D01*
X138122619Y-38525833D01*
X138075000Y-38430595D01*
X138075000Y-38335357D01*
X138122619Y-38240119D01*
X138170238Y-38192500D01*
X138265476Y-38144880D01*
X138503571Y-38144880D01*
X138646428Y-38192500D01*
X139075000Y-39144880D02*
X139075000Y-38144880D01*
X139075000Y-38621071D02*
X139646428Y-38621071D01*
X139646428Y-39144880D02*
X139646428Y-38144880D01*
X140122619Y-38144880D02*
X140122619Y-38954404D01*
X140170238Y-39049642D01*
X140217857Y-39097261D01*
X140313095Y-39144880D01*
X140503571Y-39144880D01*
X140598809Y-39097261D01*
X140646428Y-39049642D01*
X140694047Y-38954404D01*
X140694047Y-38144880D01*
X141027380Y-38144880D02*
X141598809Y-38144880D01*
X141313095Y-39144880D02*
X141313095Y-38144880D01*
X141836904Y-38144880D02*
X142455952Y-38144880D01*
X142122619Y-38525833D01*
X142265476Y-38525833D01*
X142360714Y-38573452D01*
X142408333Y-38621071D01*
X142455952Y-38716309D01*
X142455952Y-38954404D01*
X142408333Y-39049642D01*
X142360714Y-39097261D01*
X142265476Y-39144880D01*
X141979761Y-39144880D01*
X141884523Y-39097261D01*
X141836904Y-39049642D01*
X127755733Y-117107080D02*
X127422400Y-116630890D01*
X127184304Y-117107080D02*
X127184304Y-116107080D01*
X127565257Y-116107080D01*
X127660495Y-116154700D01*
X127708114Y-116202319D01*
X127755733Y-116297557D01*
X127755733Y-116440414D01*
X127708114Y-116535652D01*
X127660495Y-116583271D01*
X127565257Y-116630890D01*
X127184304Y-116630890D01*
X128136685Y-116202319D02*
X128184304Y-116154700D01*
X128279542Y-116107080D01*
X128517638Y-116107080D01*
X128612876Y-116154700D01*
X128660495Y-116202319D01*
X128708114Y-116297557D01*
X128708114Y-116392795D01*
X128660495Y-116535652D01*
X128089066Y-117107080D01*
X128708114Y-117107080D01*
X122158333Y-72071071D02*
X122491666Y-72071071D01*
X122634523Y-72594880D02*
X122158333Y-72594880D01*
X122158333Y-71594880D01*
X122634523Y-71594880D01*
X123063095Y-72594880D02*
X123063095Y-71594880D01*
X123634523Y-72594880D01*
X123634523Y-71594880D01*
X124682142Y-72499642D02*
X124634523Y-72547261D01*
X124491666Y-72594880D01*
X124396428Y-72594880D01*
X124253571Y-72547261D01*
X124158333Y-72452023D01*
X124110714Y-72356785D01*
X124063095Y-72166309D01*
X124063095Y-72023452D01*
X124110714Y-71832976D01*
X124158333Y-71737738D01*
X124253571Y-71642500D01*
X124396428Y-71594880D01*
X124491666Y-71594880D01*
X124634523Y-71642500D01*
X124682142Y-71690119D01*
X124872619Y-72690119D02*
X125634523Y-72690119D01*
X126444047Y-72499642D02*
X126396428Y-72547261D01*
X126253571Y-72594880D01*
X126158333Y-72594880D01*
X126015476Y-72547261D01*
X125920238Y-72452023D01*
X125872619Y-72356785D01*
X125825000Y-72166309D01*
X125825000Y-72023452D01*
X125872619Y-71832976D01*
X125920238Y-71737738D01*
X126015476Y-71642500D01*
X126158333Y-71594880D01*
X126253571Y-71594880D01*
X126396428Y-71642500D01*
X126444047Y-71690119D01*
X127063095Y-71594880D02*
X127253571Y-71594880D01*
X127348809Y-71642500D01*
X127444047Y-71737738D01*
X127491666Y-71928214D01*
X127491666Y-72261547D01*
X127444047Y-72452023D01*
X127348809Y-72547261D01*
X127253571Y-72594880D01*
X127063095Y-72594880D01*
X126967857Y-72547261D01*
X126872619Y-72452023D01*
X126825000Y-72261547D01*
X126825000Y-71928214D01*
X126872619Y-71737738D01*
X126967857Y-71642500D01*
X127063095Y-71594880D01*
X127920238Y-72594880D02*
X127920238Y-71594880D01*
X128491666Y-72594880D01*
X128491666Y-71594880D01*
X128967857Y-72594880D02*
X128967857Y-71594880D01*
X129539285Y-72594880D01*
X129539285Y-71594880D01*
X129920238Y-71594880D02*
X130539285Y-71594880D01*
X130205952Y-71975833D01*
X130348809Y-71975833D01*
X130444047Y-72023452D01*
X130491666Y-72071071D01*
X130539285Y-72166309D01*
X130539285Y-72404404D01*
X130491666Y-72499642D01*
X130444047Y-72547261D01*
X130348809Y-72594880D01*
X130063095Y-72594880D01*
X129967857Y-72547261D01*
X129920238Y-72499642D01*
X90928571Y-113086547D02*
X90976190Y-112943690D01*
X91023809Y-112896071D01*
X91119047Y-112848452D01*
X91261904Y-112848452D01*
X91357142Y-112896071D01*
X91404761Y-112943690D01*
X91452380Y-113038928D01*
X91452380Y-113419880D01*
X90452380Y-113419880D01*
X90452380Y-113086547D01*
X90500000Y-112991309D01*
X90547619Y-112943690D01*
X90642857Y-112896071D01*
X90738095Y-112896071D01*
X90833333Y-112943690D01*
X90880952Y-112991309D01*
X90928571Y-113086547D01*
X90928571Y-113419880D01*
X91166666Y-112467500D02*
X91166666Y-111991309D01*
X91452380Y-112562738D02*
X90452380Y-112229404D01*
X91452380Y-111896071D01*
X90452380Y-111705595D02*
X90452380Y-111134166D01*
X91452380Y-111419880D02*
X90452380Y-111419880D01*
X90452380Y-110943690D02*
X90452380Y-110372261D01*
X91452380Y-110657976D02*
X90452380Y-110657976D01*
X87107142Y-106038928D02*
X87107142Y-104896071D01*
X87107142Y-119038928D02*
X87107142Y-117896071D01*
X87678571Y-118467500D02*
X86535714Y-118467500D01*
X121783333Y-98671071D02*
X122116666Y-98671071D01*
X122259523Y-99194880D02*
X121783333Y-99194880D01*
X121783333Y-98194880D01*
X122259523Y-98194880D01*
X122688095Y-99194880D02*
X122688095Y-98194880D01*
X123259523Y-99194880D01*
X123259523Y-98194880D01*
X124307142Y-99099642D02*
X124259523Y-99147261D01*
X124116666Y-99194880D01*
X124021428Y-99194880D01*
X123878571Y-99147261D01*
X123783333Y-99052023D01*
X123735714Y-98956785D01*
X123688095Y-98766309D01*
X123688095Y-98623452D01*
X123735714Y-98432976D01*
X123783333Y-98337738D01*
X123878571Y-98242500D01*
X124021428Y-98194880D01*
X124116666Y-98194880D01*
X124259523Y-98242500D01*
X124307142Y-98290119D01*
X124497619Y-99290119D02*
X125259523Y-99290119D01*
X126069047Y-99099642D02*
X126021428Y-99147261D01*
X125878571Y-99194880D01*
X125783333Y-99194880D01*
X125640476Y-99147261D01*
X125545238Y-99052023D01*
X125497619Y-98956785D01*
X125450000Y-98766309D01*
X125450000Y-98623452D01*
X125497619Y-98432976D01*
X125545238Y-98337738D01*
X125640476Y-98242500D01*
X125783333Y-98194880D01*
X125878571Y-98194880D01*
X126021428Y-98242500D01*
X126069047Y-98290119D01*
X126688095Y-98194880D02*
X126878571Y-98194880D01*
X126973809Y-98242500D01*
X127069047Y-98337738D01*
X127116666Y-98528214D01*
X127116666Y-98861547D01*
X127069047Y-99052023D01*
X126973809Y-99147261D01*
X126878571Y-99194880D01*
X126688095Y-99194880D01*
X126592857Y-99147261D01*
X126497619Y-99052023D01*
X126450000Y-98861547D01*
X126450000Y-98528214D01*
X126497619Y-98337738D01*
X126592857Y-98242500D01*
X126688095Y-98194880D01*
X127545238Y-99194880D02*
X127545238Y-98194880D01*
X128116666Y-99194880D01*
X128116666Y-98194880D01*
X128592857Y-99194880D02*
X128592857Y-98194880D01*
X129164285Y-99194880D01*
X129164285Y-98194880D01*
X129592857Y-98290119D02*
X129640476Y-98242500D01*
X129735714Y-98194880D01*
X129973809Y-98194880D01*
X130069047Y-98242500D01*
X130116666Y-98290119D01*
X130164285Y-98385357D01*
X130164285Y-98480595D01*
X130116666Y-98623452D01*
X129545238Y-99194880D01*
X130164285Y-99194880D01*
X127755733Y-124357080D02*
X127422400Y-123880890D01*
X127184304Y-124357080D02*
X127184304Y-123357080D01*
X127565257Y-123357080D01*
X127660495Y-123404700D01*
X127708114Y-123452319D01*
X127755733Y-123547557D01*
X127755733Y-123690414D01*
X127708114Y-123785652D01*
X127660495Y-123833271D01*
X127565257Y-123880890D01*
X127184304Y-123880890D01*
X128708114Y-124357080D02*
X128136685Y-124357080D01*
X128422400Y-124357080D02*
X128422400Y-123357080D01*
X128327161Y-123499938D01*
X128231923Y-123595176D01*
X128136685Y-123642795D01*
X86127380Y-102013928D02*
X86127380Y-101918690D01*
X86175000Y-101823452D01*
X86222619Y-101775833D01*
X86317857Y-101728214D01*
X86508333Y-101680595D01*
X86746428Y-101680595D01*
X86936904Y-101728214D01*
X87032142Y-101775833D01*
X87079761Y-101823452D01*
X87127380Y-101918690D01*
X87127380Y-102013928D01*
X87079761Y-102109166D01*
X87032142Y-102156785D01*
X86936904Y-102204404D01*
X86746428Y-102252023D01*
X86508333Y-102252023D01*
X86317857Y-102204404D01*
X86222619Y-102156785D01*
X86175000Y-102109166D01*
X86127380Y-102013928D01*
X86127380Y-100299642D02*
X86127380Y-100109166D01*
X86175000Y-100013928D01*
X86270238Y-99918690D01*
X86460714Y-99871071D01*
X86794047Y-99871071D01*
X86984523Y-99918690D01*
X87079761Y-100013928D01*
X87127380Y-100109166D01*
X87127380Y-100299642D01*
X87079761Y-100394880D01*
X86984523Y-100490119D01*
X86794047Y-100537738D01*
X86460714Y-100537738D01*
X86270238Y-100490119D01*
X86175000Y-100394880D01*
X86127380Y-100299642D01*
X87127380Y-99442500D02*
X86127380Y-99442500D01*
X87127380Y-99013928D02*
X86603571Y-99013928D01*
X86508333Y-99061547D01*
X86460714Y-99156785D01*
X86460714Y-99299642D01*
X86508333Y-99394880D01*
X86555952Y-99442500D01*
X87127380Y-98537738D02*
X86460714Y-98537738D01*
X86555952Y-98537738D02*
X86508333Y-98490119D01*
X86460714Y-98394880D01*
X86460714Y-98252023D01*
X86508333Y-98156785D01*
X86603571Y-98109166D01*
X87127380Y-98109166D01*
X86603571Y-98109166D02*
X86508333Y-98061547D01*
X86460714Y-97966309D01*
X86460714Y-97823452D01*
X86508333Y-97728214D01*
X86603571Y-97680595D01*
X87127380Y-97680595D01*
X99063095Y-38894880D02*
X99634523Y-38894880D01*
X99348809Y-39894880D02*
X99348809Y-38894880D01*
X100158333Y-38894880D02*
X100348809Y-38894880D01*
X100444047Y-38942500D01*
X100539285Y-39037738D01*
X100586904Y-39228214D01*
X100586904Y-39561547D01*
X100539285Y-39752023D01*
X100444047Y-39847261D01*
X100348809Y-39894880D01*
X100158333Y-39894880D01*
X100063095Y-39847261D01*
X99967857Y-39752023D01*
X99920238Y-39561547D01*
X99920238Y-39228214D01*
X99967857Y-39037738D01*
X100063095Y-38942500D01*
X100158333Y-38894880D01*
X101348809Y-39371071D02*
X101015476Y-39371071D01*
X101015476Y-39894880D02*
X101015476Y-38894880D01*
X101491666Y-38894880D01*
X101634523Y-39990119D02*
X102396428Y-39990119D01*
X102586904Y-39847261D02*
X102729761Y-39894880D01*
X102967857Y-39894880D01*
X103063095Y-39847261D01*
X103110714Y-39799642D01*
X103158333Y-39704404D01*
X103158333Y-39609166D01*
X103110714Y-39513928D01*
X103063095Y-39466309D01*
X102967857Y-39418690D01*
X102777380Y-39371071D01*
X102682142Y-39323452D01*
X102634523Y-39275833D01*
X102586904Y-39180595D01*
X102586904Y-39085357D01*
X102634523Y-38990119D01*
X102682142Y-38942500D01*
X102777380Y-38894880D01*
X103015476Y-38894880D01*
X103158333Y-38942500D01*
X103444047Y-38894880D02*
X104015476Y-38894880D01*
X103729761Y-39894880D02*
X103729761Y-38894880D01*
X104348809Y-39371071D02*
X104682142Y-39371071D01*
X104825000Y-39894880D02*
X104348809Y-39894880D01*
X104348809Y-38894880D01*
X104825000Y-38894880D01*
X105253571Y-39894880D02*
X105253571Y-38894880D01*
X105586904Y-39609166D01*
X105920238Y-38894880D01*
X105920238Y-39894880D01*
X106396428Y-39894880D02*
X106396428Y-38894880D01*
X106729761Y-39609166D01*
X107063095Y-38894880D01*
X107063095Y-39894880D01*
X107491666Y-39609166D02*
X107967857Y-39609166D01*
X107396428Y-39894880D02*
X107729761Y-38894880D01*
X108063095Y-39894880D01*
X108158333Y-39990119D02*
X108920238Y-39990119D01*
X109825000Y-39990119D02*
X109729761Y-39942500D01*
X109634523Y-39847261D01*
X109491666Y-39704404D01*
X109396428Y-39656785D01*
X109301190Y-39656785D01*
X109348809Y-39894880D02*
X109253571Y-39847261D01*
X109158333Y-39752023D01*
X109110714Y-39561547D01*
X109110714Y-39228214D01*
X109158333Y-39037738D01*
X109253571Y-38942500D01*
X109348809Y-38894880D01*
X109539285Y-38894880D01*
X109634523Y-38942500D01*
X109729761Y-39037738D01*
X109777380Y-39228214D01*
X109777380Y-39561547D01*
X109729761Y-39752023D01*
X109634523Y-39847261D01*
X109539285Y-39894880D01*
X109348809Y-39894880D01*
X110063095Y-38894880D02*
X110634523Y-38894880D01*
X110348809Y-39894880D02*
X110348809Y-38894880D01*
X111396428Y-39228214D02*
X111396428Y-39894880D01*
X111158333Y-38847261D02*
X110920238Y-39561547D01*
X111539285Y-39561547D01*
X110365609Y-123354280D02*
X110937038Y-123354280D01*
X110651323Y-124354280D02*
X110651323Y-123354280D01*
X111460847Y-123354280D02*
X111651323Y-123354280D01*
X111746561Y-123401900D01*
X111841800Y-123497138D01*
X111889419Y-123687614D01*
X111889419Y-124020947D01*
X111841800Y-124211423D01*
X111746561Y-124306661D01*
X111651323Y-124354280D01*
X111460847Y-124354280D01*
X111365609Y-124306661D01*
X111270371Y-124211423D01*
X111222752Y-124020947D01*
X111222752Y-123687614D01*
X111270371Y-123497138D01*
X111365609Y-123401900D01*
X111460847Y-123354280D01*
X112651323Y-123830471D02*
X112317990Y-123830471D01*
X112317990Y-124354280D02*
X112317990Y-123354280D01*
X112794180Y-123354280D01*
X112937038Y-124449519D02*
X113698942Y-124449519D01*
X113841800Y-123354280D02*
X114508466Y-124354280D01*
X114508466Y-123354280D02*
X113841800Y-124354280D01*
X114841800Y-124306661D02*
X114984657Y-124354280D01*
X115222752Y-124354280D01*
X115317990Y-124306661D01*
X115365609Y-124259042D01*
X115413228Y-124163804D01*
X115413228Y-124068566D01*
X115365609Y-123973328D01*
X115317990Y-123925709D01*
X115222752Y-123878090D01*
X115032276Y-123830471D01*
X114937038Y-123782852D01*
X114889419Y-123735233D01*
X114841800Y-123639995D01*
X114841800Y-123544757D01*
X114889419Y-123449519D01*
X114937038Y-123401900D01*
X115032276Y-123354280D01*
X115270371Y-123354280D01*
X115413228Y-123401900D01*
X115841800Y-124354280D02*
X115841800Y-123354280D01*
X115841800Y-123830471D02*
X116413228Y-123830471D01*
X116413228Y-124354280D02*
X116413228Y-123354280D01*
X116889419Y-123354280D02*
X116889419Y-124163804D01*
X116937038Y-124259042D01*
X116984657Y-124306661D01*
X117079895Y-124354280D01*
X117270371Y-124354280D01*
X117365609Y-124306661D01*
X117413228Y-124259042D01*
X117460847Y-124163804D01*
X117460847Y-123354280D01*
X117794180Y-123354280D02*
X118365609Y-123354280D01*
X118079895Y-124354280D02*
X118079895Y-123354280D01*
X118651323Y-123449519D02*
X118698942Y-123401900D01*
X118794180Y-123354280D01*
X119032276Y-123354280D01*
X119127514Y-123401900D01*
X119175133Y-123449519D01*
X119222752Y-123544757D01*
X119222752Y-123639995D01*
X119175133Y-123782852D01*
X118603704Y-124354280D01*
X119222752Y-124354280D01*
X89771428Y-102423680D02*
X90104761Y-103423680D01*
X90438095Y-102423680D01*
X92104761Y-103423680D02*
X91771428Y-102947490D01*
X91533333Y-103423680D02*
X91533333Y-102423680D01*
X91914285Y-102423680D01*
X92009523Y-102471300D01*
X92057142Y-102518919D01*
X92104761Y-102614157D01*
X92104761Y-102757014D01*
X92057142Y-102852252D01*
X92009523Y-102899871D01*
X91914285Y-102947490D01*
X91533333Y-102947490D01*
X92533333Y-102899871D02*
X92866666Y-102899871D01*
X93009523Y-103423680D02*
X92533333Y-103423680D01*
X92533333Y-102423680D01*
X93009523Y-102423680D01*
X93961904Y-102471300D02*
X93866666Y-102423680D01*
X93723809Y-102423680D01*
X93580952Y-102471300D01*
X93485714Y-102566538D01*
X93438095Y-102661776D01*
X93390476Y-102852252D01*
X93390476Y-102995109D01*
X93438095Y-103185585D01*
X93485714Y-103280823D01*
X93580952Y-103376061D01*
X93723809Y-103423680D01*
X93819047Y-103423680D01*
X93961904Y-103376061D01*
X94009523Y-103328442D01*
X94009523Y-102995109D01*
X93819047Y-102995109D01*
X94438095Y-102423680D02*
X94438095Y-103233204D01*
X94485714Y-103328442D01*
X94533333Y-103376061D01*
X94628571Y-103423680D01*
X94819047Y-103423680D01*
X94914285Y-103376061D01*
X94961904Y-103328442D01*
X95009523Y-103233204D01*
X95009523Y-102423680D01*
X95961904Y-103423680D02*
X95485714Y-103423680D01*
X95485714Y-102423680D01*
X96247619Y-103137966D02*
X96723809Y-103137966D01*
X96152380Y-103423680D02*
X96485714Y-102423680D01*
X96819047Y-103423680D01*
X97009523Y-102423680D02*
X97580952Y-102423680D01*
X97295238Y-103423680D02*
X97295238Y-102423680D01*
X98104761Y-102423680D02*
X98295238Y-102423680D01*
X98390476Y-102471300D01*
X98485714Y-102566538D01*
X98533333Y-102757014D01*
X98533333Y-103090347D01*
X98485714Y-103280823D01*
X98390476Y-103376061D01*
X98295238Y-103423680D01*
X98104761Y-103423680D01*
X98009523Y-103376061D01*
X97914285Y-103280823D01*
X97866666Y-103090347D01*
X97866666Y-102757014D01*
X97914285Y-102566538D01*
X98009523Y-102471300D01*
X98104761Y-102423680D01*
X99533333Y-103423680D02*
X99200000Y-102947490D01*
X98961904Y-103423680D02*
X98961904Y-102423680D01*
X99342857Y-102423680D01*
X99438095Y-102471300D01*
X99485714Y-102518919D01*
X99533333Y-102614157D01*
X99533333Y-102757014D01*
X99485714Y-102852252D01*
X99438095Y-102899871D01*
X99342857Y-102947490D01*
X98961904Y-102947490D01*
X117573809Y-38419880D02*
X118145238Y-38419880D01*
X117859523Y-39419880D02*
X117859523Y-38419880D01*
X118669047Y-38419880D02*
X118859523Y-38419880D01*
X118954761Y-38467500D01*
X119050000Y-38562738D01*
X119097619Y-38753214D01*
X119097619Y-39086547D01*
X119050000Y-39277023D01*
X118954761Y-39372261D01*
X118859523Y-39419880D01*
X118669047Y-39419880D01*
X118573809Y-39372261D01*
X118478571Y-39277023D01*
X118430952Y-39086547D01*
X118430952Y-38753214D01*
X118478571Y-38562738D01*
X118573809Y-38467500D01*
X118669047Y-38419880D01*
X119859523Y-38896071D02*
X119526190Y-38896071D01*
X119526190Y-39419880D02*
X119526190Y-38419880D01*
X120002380Y-38419880D01*
X120145238Y-39515119D02*
X120907142Y-39515119D01*
X121050000Y-38419880D02*
X121716666Y-39419880D01*
X121716666Y-38419880D02*
X121050000Y-39419880D01*
X122050000Y-39372261D02*
X122192857Y-39419880D01*
X122430952Y-39419880D01*
X122526190Y-39372261D01*
X122573809Y-39324642D01*
X122621428Y-39229404D01*
X122621428Y-39134166D01*
X122573809Y-39038928D01*
X122526190Y-38991309D01*
X122430952Y-38943690D01*
X122240476Y-38896071D01*
X122145238Y-38848452D01*
X122097619Y-38800833D01*
X122050000Y-38705595D01*
X122050000Y-38610357D01*
X122097619Y-38515119D01*
X122145238Y-38467500D01*
X122240476Y-38419880D01*
X122478571Y-38419880D01*
X122621428Y-38467500D01*
X123050000Y-39419880D02*
X123050000Y-38419880D01*
X123050000Y-38896071D02*
X123621428Y-38896071D01*
X123621428Y-39419880D02*
X123621428Y-38419880D01*
X124097619Y-38419880D02*
X124097619Y-39229404D01*
X124145238Y-39324642D01*
X124192857Y-39372261D01*
X124288095Y-39419880D01*
X124478571Y-39419880D01*
X124573809Y-39372261D01*
X124621428Y-39324642D01*
X124669047Y-39229404D01*
X124669047Y-38419880D01*
X125002380Y-38419880D02*
X125573809Y-38419880D01*
X125288095Y-39419880D02*
X125288095Y-38419880D01*
X126335714Y-38753214D02*
X126335714Y-39419880D01*
X126097619Y-38372261D02*
X125859523Y-39086547D01*
X126478571Y-39086547D01*
X118253571Y-89709166D02*
X118253571Y-89375833D01*
X118777380Y-89232976D02*
X118777380Y-89709166D01*
X117777380Y-89709166D01*
X117777380Y-89232976D01*
X118777380Y-88804404D02*
X117777380Y-88804404D01*
X118777380Y-88232976D01*
X117777380Y-88232976D01*
X118682142Y-87185357D02*
X118729761Y-87232976D01*
X118777380Y-87375833D01*
X118777380Y-87471071D01*
X118729761Y-87613928D01*
X118634523Y-87709166D01*
X118539285Y-87756785D01*
X118348809Y-87804404D01*
X118205952Y-87804404D01*
X118015476Y-87756785D01*
X117920238Y-87709166D01*
X117825000Y-87613928D01*
X117777380Y-87471071D01*
X117777380Y-87375833D01*
X117825000Y-87232976D01*
X117872619Y-87185357D01*
X118872619Y-86994880D02*
X118872619Y-86232976D01*
X118682142Y-85423452D02*
X118729761Y-85471071D01*
X118777380Y-85613928D01*
X118777380Y-85709166D01*
X118729761Y-85852023D01*
X118634523Y-85947261D01*
X118539285Y-85994880D01*
X118348809Y-86042500D01*
X118205952Y-86042500D01*
X118015476Y-85994880D01*
X117920238Y-85947261D01*
X117825000Y-85852023D01*
X117777380Y-85709166D01*
X117777380Y-85613928D01*
X117825000Y-85471071D01*
X117872619Y-85423452D01*
X117777380Y-84804404D02*
X117777380Y-84613928D01*
X117825000Y-84518690D01*
X117920238Y-84423452D01*
X118110714Y-84375833D01*
X118444047Y-84375833D01*
X118634523Y-84423452D01*
X118729761Y-84518690D01*
X118777380Y-84613928D01*
X118777380Y-84804404D01*
X118729761Y-84899642D01*
X118634523Y-84994880D01*
X118444047Y-85042500D01*
X118110714Y-85042500D01*
X117920238Y-84994880D01*
X117825000Y-84899642D01*
X117777380Y-84804404D01*
X118777380Y-83947261D02*
X117777380Y-83947261D01*
X118777380Y-83375833D01*
X117777380Y-83375833D01*
X118777380Y-82899642D02*
X117777380Y-82899642D01*
X118777380Y-82328214D01*
X117777380Y-82328214D01*
X118777380Y-81328214D02*
X118777380Y-81899642D01*
X118777380Y-81613928D02*
X117777380Y-81613928D01*
X117920238Y-81709166D01*
X118015476Y-81804404D01*
X118063095Y-81899642D01*
X149023809Y-123419880D02*
X149595238Y-123419880D01*
X149309523Y-124419880D02*
X149309523Y-123419880D01*
X150119047Y-123419880D02*
X150309523Y-123419880D01*
X150404761Y-123467500D01*
X150500000Y-123562738D01*
X150547619Y-123753214D01*
X150547619Y-124086547D01*
X150500000Y-124277023D01*
X150404761Y-124372261D01*
X150309523Y-124419880D01*
X150119047Y-124419880D01*
X150023809Y-124372261D01*
X149928571Y-124277023D01*
X149880952Y-124086547D01*
X149880952Y-123753214D01*
X149928571Y-123562738D01*
X150023809Y-123467500D01*
X150119047Y-123419880D01*
X151309523Y-123896071D02*
X150976190Y-123896071D01*
X150976190Y-124419880D02*
X150976190Y-123419880D01*
X151452380Y-123419880D01*
X151595238Y-124515119D02*
X152357142Y-124515119D01*
X152500000Y-123419880D02*
X153166666Y-124419880D01*
X153166666Y-123419880D02*
X152500000Y-124419880D01*
X153500000Y-124372261D02*
X153642857Y-124419880D01*
X153880952Y-124419880D01*
X153976190Y-124372261D01*
X154023809Y-124324642D01*
X154071428Y-124229404D01*
X154071428Y-124134166D01*
X154023809Y-124038928D01*
X153976190Y-123991309D01*
X153880952Y-123943690D01*
X153690476Y-123896071D01*
X153595238Y-123848452D01*
X153547619Y-123800833D01*
X153500000Y-123705595D01*
X153500000Y-123610357D01*
X153547619Y-123515119D01*
X153595238Y-123467500D01*
X153690476Y-123419880D01*
X153928571Y-123419880D01*
X154071428Y-123467500D01*
X154500000Y-124419880D02*
X154500000Y-123419880D01*
X154500000Y-123896071D02*
X155071428Y-123896071D01*
X155071428Y-124419880D02*
X155071428Y-123419880D01*
X155547619Y-123419880D02*
X155547619Y-124229404D01*
X155595238Y-124324642D01*
X155642857Y-124372261D01*
X155738095Y-124419880D01*
X155928571Y-124419880D01*
X156023809Y-124372261D01*
X156071428Y-124324642D01*
X156119047Y-124229404D01*
X156119047Y-123419880D01*
X156452380Y-123419880D02*
X157023809Y-123419880D01*
X156738095Y-124419880D02*
X156738095Y-123419880D01*
X157880952Y-124419880D02*
X157309523Y-124419880D01*
X157595238Y-124419880D02*
X157595238Y-123419880D01*
X157500000Y-123562738D01*
X157404761Y-123657976D01*
X157309523Y-123705595D01*
X138318571Y-90416666D02*
X138318571Y-90083333D01*
X138842380Y-89940476D02*
X138842380Y-90416666D01*
X137842380Y-90416666D01*
X137842380Y-89940476D01*
X138842380Y-89511904D02*
X137842380Y-89511904D01*
X138842380Y-88940476D01*
X137842380Y-88940476D01*
X138747142Y-87892857D02*
X138794761Y-87940476D01*
X138842380Y-88083333D01*
X138842380Y-88178571D01*
X138794761Y-88321428D01*
X138699523Y-88416666D01*
X138604285Y-88464285D01*
X138413809Y-88511904D01*
X138270952Y-88511904D01*
X138080476Y-88464285D01*
X137985238Y-88416666D01*
X137890000Y-88321428D01*
X137842380Y-88178571D01*
X137842380Y-88083333D01*
X137890000Y-87940476D01*
X137937619Y-87892857D01*
X138937619Y-87702380D02*
X138937619Y-86940476D01*
X138747142Y-86130952D02*
X138794761Y-86178571D01*
X138842380Y-86321428D01*
X138842380Y-86416666D01*
X138794761Y-86559523D01*
X138699523Y-86654761D01*
X138604285Y-86702380D01*
X138413809Y-86750000D01*
X138270952Y-86750000D01*
X138080476Y-86702380D01*
X137985238Y-86654761D01*
X137890000Y-86559523D01*
X137842380Y-86416666D01*
X137842380Y-86321428D01*
X137890000Y-86178571D01*
X137937619Y-86130952D01*
X137842380Y-85511904D02*
X137842380Y-85321428D01*
X137890000Y-85226190D01*
X137985238Y-85130952D01*
X138175714Y-85083333D01*
X138509047Y-85083333D01*
X138699523Y-85130952D01*
X138794761Y-85226190D01*
X138842380Y-85321428D01*
X138842380Y-85511904D01*
X138794761Y-85607142D01*
X138699523Y-85702380D01*
X138509047Y-85750000D01*
X138175714Y-85750000D01*
X137985238Y-85702380D01*
X137890000Y-85607142D01*
X137842380Y-85511904D01*
X138842380Y-84654761D02*
X137842380Y-84654761D01*
X138842380Y-84083333D01*
X137842380Y-84083333D01*
X138842380Y-83607142D02*
X137842380Y-83607142D01*
X138842380Y-83035714D01*
X137842380Y-83035714D01*
X138175714Y-82130952D02*
X138842380Y-82130952D01*
X137794761Y-82369047D02*
X138509047Y-82607142D01*
X138509047Y-81988095D01*
X139646428Y-55144880D02*
X139313095Y-54668690D01*
X139075000Y-55144880D02*
X139075000Y-54144880D01*
X139455952Y-54144880D01*
X139551190Y-54192500D01*
X139598809Y-54240119D01*
X139646428Y-54335357D01*
X139646428Y-54478214D01*
X139598809Y-54573452D01*
X139551190Y-54621071D01*
X139455952Y-54668690D01*
X139075000Y-54668690D01*
X140075000Y-55144880D02*
X140075000Y-54144880D01*
X140455952Y-54144880D01*
X140551190Y-54192500D01*
X140598809Y-54240119D01*
X140646428Y-54335357D01*
X140646428Y-54478214D01*
X140598809Y-54573452D01*
X140551190Y-54621071D01*
X140455952Y-54668690D01*
X140075000Y-54668690D01*
X141075000Y-55144880D02*
X141075000Y-54144880D01*
X96705952Y-100885119D02*
X96134523Y-100885119D01*
X96420238Y-99885119D02*
X96420238Y-100885119D01*
X95420238Y-99932738D02*
X95515476Y-99885119D01*
X95705952Y-99885119D01*
X95801190Y-99932738D01*
X95848809Y-100027976D01*
X95848809Y-100408928D01*
X95801190Y-100504166D01*
X95705952Y-100551785D01*
X95515476Y-100551785D01*
X95420238Y-100504166D01*
X95372619Y-100408928D01*
X95372619Y-100313690D01*
X95848809Y-100218452D01*
X94563095Y-99932738D02*
X94658333Y-99885119D01*
X94848809Y-99885119D01*
X94944047Y-99932738D01*
X94991666Y-100027976D01*
X94991666Y-100408928D01*
X94944047Y-100504166D01*
X94848809Y-100551785D01*
X94658333Y-100551785D01*
X94563095Y-100504166D01*
X94515476Y-100408928D01*
X94515476Y-100313690D01*
X94991666Y-100218452D01*
X94086904Y-100551785D02*
X94086904Y-99885119D01*
X94086904Y-100456547D02*
X94039285Y-100504166D01*
X93944047Y-100551785D01*
X93801190Y-100551785D01*
X93705952Y-100504166D01*
X93658333Y-100408928D01*
X93658333Y-99885119D01*
X93229761Y-99932738D02*
X93134523Y-99885119D01*
X92944047Y-99885119D01*
X92848809Y-99932738D01*
X92801190Y-100027976D01*
X92801190Y-100075595D01*
X92848809Y-100170833D01*
X92944047Y-100218452D01*
X93086904Y-100218452D01*
X93182142Y-100266071D01*
X93229761Y-100361309D01*
X93229761Y-100408928D01*
X93182142Y-100504166D01*
X93086904Y-100551785D01*
X92944047Y-100551785D01*
X92848809Y-100504166D01*
X92467857Y-100551785D02*
X92229761Y-99885119D01*
X91991666Y-100551785D02*
X92229761Y-99885119D01*
X92325000Y-99647023D01*
X92372619Y-99599404D01*
X92467857Y-99551785D01*
X95360495Y-123757080D02*
X95931923Y-123757080D01*
X95646209Y-124757080D02*
X95646209Y-123757080D01*
X96455733Y-123757080D02*
X96646209Y-123757080D01*
X96741447Y-123804700D01*
X96836685Y-123899938D01*
X96884304Y-124090414D01*
X96884304Y-124423747D01*
X96836685Y-124614223D01*
X96741447Y-124709461D01*
X96646209Y-124757080D01*
X96455733Y-124757080D01*
X96360495Y-124709461D01*
X96265257Y-124614223D01*
X96217638Y-124423747D01*
X96217638Y-124090414D01*
X96265257Y-123899938D01*
X96360495Y-123804700D01*
X96455733Y-123757080D01*
X97646209Y-124233271D02*
X97312876Y-124233271D01*
X97312876Y-124757080D02*
X97312876Y-123757080D01*
X97789066Y-123757080D01*
X97931923Y-124852319D02*
X98693828Y-124852319D01*
X98884304Y-124709461D02*
X99027161Y-124757080D01*
X99265257Y-124757080D01*
X99360495Y-124709461D01*
X99408114Y-124661842D01*
X99455733Y-124566604D01*
X99455733Y-124471366D01*
X99408114Y-124376128D01*
X99360495Y-124328509D01*
X99265257Y-124280890D01*
X99074780Y-124233271D01*
X98979542Y-124185652D01*
X98931923Y-124138033D01*
X98884304Y-124042795D01*
X98884304Y-123947557D01*
X98931923Y-123852319D01*
X98979542Y-123804700D01*
X99074780Y-123757080D01*
X99312876Y-123757080D01*
X99455733Y-123804700D01*
X99741447Y-123757080D02*
X100312876Y-123757080D01*
X100027161Y-124757080D02*
X100027161Y-123757080D01*
X100646209Y-124233271D02*
X100979542Y-124233271D01*
X101122400Y-124757080D02*
X100646209Y-124757080D01*
X100646209Y-123757080D01*
X101122400Y-123757080D01*
X101550971Y-124757080D02*
X101550971Y-123757080D01*
X101884304Y-124471366D01*
X102217638Y-123757080D01*
X102217638Y-124757080D01*
X102693828Y-124757080D02*
X102693828Y-123757080D01*
X103027161Y-124471366D01*
X103360495Y-123757080D01*
X103360495Y-124757080D01*
X103789066Y-124471366D02*
X104265257Y-124471366D01*
X103693828Y-124757080D02*
X104027161Y-123757080D01*
X104360495Y-124757080D01*
X104455733Y-124852319D02*
X105217638Y-124852319D01*
X106122400Y-124852319D02*
X106027161Y-124804700D01*
X105931923Y-124709461D01*
X105789066Y-124566604D01*
X105693828Y-124518985D01*
X105598590Y-124518985D01*
X105646209Y-124757080D02*
X105550971Y-124709461D01*
X105455733Y-124614223D01*
X105408114Y-124423747D01*
X105408114Y-124090414D01*
X105455733Y-123899938D01*
X105550971Y-123804700D01*
X105646209Y-123757080D01*
X105836685Y-123757080D01*
X105931923Y-123804700D01*
X106027161Y-123899938D01*
X106074780Y-124090414D01*
X106074780Y-124423747D01*
X106027161Y-124614223D01*
X105931923Y-124709461D01*
X105836685Y-124757080D01*
X105646209Y-124757080D01*
X106360495Y-123757080D02*
X106931923Y-123757080D01*
X106646209Y-124757080D02*
X106646209Y-123757080D01*
X107217638Y-123852319D02*
X107265257Y-123804700D01*
X107360495Y-123757080D01*
X107598590Y-123757080D01*
X107693828Y-123804700D01*
X107741447Y-123852319D01*
X107789066Y-123947557D01*
X107789066Y-124042795D01*
X107741447Y-124185652D01*
X107170019Y-124757080D01*
X107789066Y-124757080D01*
X93229761Y-38894880D02*
X93229761Y-37894880D01*
X93705952Y-38894880D02*
X93705952Y-37894880D01*
X94039285Y-38609166D01*
X94372619Y-37894880D01*
X94372619Y-38894880D01*
X94848809Y-37894880D02*
X94848809Y-38704404D01*
X94896428Y-38799642D01*
X94944047Y-38847261D01*
X95039285Y-38894880D01*
X95229761Y-38894880D01*
X95325000Y-38847261D01*
X95372619Y-38799642D01*
X95420238Y-38704404D01*
X95420238Y-37894880D01*
X150063095Y-37894880D02*
X150634523Y-37894880D01*
X150348809Y-38894880D02*
X150348809Y-37894880D01*
X151158333Y-37894880D02*
X151348809Y-37894880D01*
X151444047Y-37942500D01*
X151539285Y-38037738D01*
X151586904Y-38228214D01*
X151586904Y-38561547D01*
X151539285Y-38752023D01*
X151444047Y-38847261D01*
X151348809Y-38894880D01*
X151158333Y-38894880D01*
X151063095Y-38847261D01*
X150967857Y-38752023D01*
X150920238Y-38561547D01*
X150920238Y-38228214D01*
X150967857Y-38037738D01*
X151063095Y-37942500D01*
X151158333Y-37894880D01*
X152348809Y-38371071D02*
X152015476Y-38371071D01*
X152015476Y-38894880D02*
X152015476Y-37894880D01*
X152491666Y-37894880D01*
X152634523Y-38990119D02*
X153396428Y-38990119D01*
X153586904Y-38847261D02*
X153729761Y-38894880D01*
X153967857Y-38894880D01*
X154063095Y-38847261D01*
X154110714Y-38799642D01*
X154158333Y-38704404D01*
X154158333Y-38609166D01*
X154110714Y-38513928D01*
X154063095Y-38466309D01*
X153967857Y-38418690D01*
X153777380Y-38371071D01*
X153682142Y-38323452D01*
X153634523Y-38275833D01*
X153586904Y-38180595D01*
X153586904Y-38085357D01*
X153634523Y-37990119D01*
X153682142Y-37942500D01*
X153777380Y-37894880D01*
X154015476Y-37894880D01*
X154158333Y-37942500D01*
X154444047Y-37894880D02*
X155015476Y-37894880D01*
X154729761Y-38894880D02*
X154729761Y-37894880D01*
X155348809Y-38371071D02*
X155682142Y-38371071D01*
X155825000Y-38894880D02*
X155348809Y-38894880D01*
X155348809Y-37894880D01*
X155825000Y-37894880D01*
X156253571Y-38894880D02*
X156253571Y-37894880D01*
X156586904Y-38609166D01*
X156920238Y-37894880D01*
X156920238Y-38894880D01*
X157396428Y-38894880D02*
X157396428Y-37894880D01*
X157729761Y-38609166D01*
X158063095Y-37894880D01*
X158063095Y-38894880D01*
X158491666Y-38609166D02*
X158967857Y-38609166D01*
X158396428Y-38894880D02*
X158729761Y-37894880D01*
X159063095Y-38894880D01*
X159158333Y-38990119D02*
X159920238Y-38990119D01*
X160825000Y-38990119D02*
X160729761Y-38942500D01*
X160634523Y-38847261D01*
X160491666Y-38704404D01*
X160396428Y-38656785D01*
X160301190Y-38656785D01*
X160348809Y-38894880D02*
X160253571Y-38847261D01*
X160158333Y-38752023D01*
X160110714Y-38561547D01*
X160110714Y-38228214D01*
X160158333Y-38037738D01*
X160253571Y-37942500D01*
X160348809Y-37894880D01*
X160539285Y-37894880D01*
X160634523Y-37942500D01*
X160729761Y-38037738D01*
X160777380Y-38228214D01*
X160777380Y-38561547D01*
X160729761Y-38752023D01*
X160634523Y-38847261D01*
X160539285Y-38894880D01*
X160348809Y-38894880D01*
X161063095Y-37894880D02*
X161634523Y-37894880D01*
X161348809Y-38894880D02*
X161348809Y-37894880D01*
X161872619Y-37894880D02*
X162491666Y-37894880D01*
X162158333Y-38275833D01*
X162301190Y-38275833D01*
X162396428Y-38323452D01*
X162444047Y-38371071D01*
X162491666Y-38466309D01*
X162491666Y-38704404D01*
X162444047Y-38799642D01*
X162396428Y-38847261D01*
X162301190Y-38894880D01*
X162015476Y-38894880D01*
X161920238Y-38847261D01*
X161872619Y-38799642D01*
X134838095Y-124052380D02*
X135409523Y-124052380D01*
X135123809Y-125052380D02*
X135123809Y-124052380D01*
X135933333Y-124052380D02*
X136123809Y-124052380D01*
X136219047Y-124100000D01*
X136314285Y-124195238D01*
X136361904Y-124385714D01*
X136361904Y-124719047D01*
X136314285Y-124909523D01*
X136219047Y-125004761D01*
X136123809Y-125052380D01*
X135933333Y-125052380D01*
X135838095Y-125004761D01*
X135742857Y-124909523D01*
X135695238Y-124719047D01*
X135695238Y-124385714D01*
X135742857Y-124195238D01*
X135838095Y-124100000D01*
X135933333Y-124052380D01*
X137123809Y-124528571D02*
X136790476Y-124528571D01*
X136790476Y-125052380D02*
X136790476Y-124052380D01*
X137266666Y-124052380D01*
X137409523Y-125147619D02*
X138171428Y-125147619D01*
X138361904Y-125004761D02*
X138504761Y-125052380D01*
X138742857Y-125052380D01*
X138838095Y-125004761D01*
X138885714Y-124957142D01*
X138933333Y-124861904D01*
X138933333Y-124766666D01*
X138885714Y-124671428D01*
X138838095Y-124623809D01*
X138742857Y-124576190D01*
X138552380Y-124528571D01*
X138457142Y-124480952D01*
X138409523Y-124433333D01*
X138361904Y-124338095D01*
X138361904Y-124242857D01*
X138409523Y-124147619D01*
X138457142Y-124100000D01*
X138552380Y-124052380D01*
X138790476Y-124052380D01*
X138933333Y-124100000D01*
X139219047Y-124052380D02*
X139790476Y-124052380D01*
X139504761Y-125052380D02*
X139504761Y-124052380D01*
X140123809Y-124528571D02*
X140457142Y-124528571D01*
X140600000Y-125052380D02*
X140123809Y-125052380D01*
X140123809Y-124052380D01*
X140600000Y-124052380D01*
X141028571Y-125052380D02*
X141028571Y-124052380D01*
X141361904Y-124766666D01*
X141695238Y-124052380D01*
X141695238Y-125052380D01*
X142171428Y-125052380D02*
X142171428Y-124052380D01*
X142504761Y-124766666D01*
X142838095Y-124052380D01*
X142838095Y-125052380D01*
X143266666Y-124766666D02*
X143742857Y-124766666D01*
X143171428Y-125052380D02*
X143504761Y-124052380D01*
X143838095Y-125052380D01*
X143933333Y-125147619D02*
X144695238Y-125147619D01*
X145600000Y-125147619D02*
X145504761Y-125100000D01*
X145409523Y-125004761D01*
X145266666Y-124861904D01*
X145171428Y-124814285D01*
X145076190Y-124814285D01*
X145123809Y-125052380D02*
X145028571Y-125004761D01*
X144933333Y-124909523D01*
X144885714Y-124719047D01*
X144885714Y-124385714D01*
X144933333Y-124195238D01*
X145028571Y-124100000D01*
X145123809Y-124052380D01*
X145314285Y-124052380D01*
X145409523Y-124100000D01*
X145504761Y-124195238D01*
X145552380Y-124385714D01*
X145552380Y-124719047D01*
X145504761Y-124909523D01*
X145409523Y-125004761D01*
X145314285Y-125052380D01*
X145123809Y-125052380D01*
X145838095Y-124052380D02*
X146409523Y-124052380D01*
X146123809Y-125052380D02*
X146123809Y-124052380D01*
X147266666Y-125052380D02*
X146695238Y-125052380D01*
X146980952Y-125052380D02*
X146980952Y-124052380D01*
X146885714Y-124195238D01*
X146790476Y-124290476D01*
X146695238Y-124338095D01*
D12*
X141195000Y-42772500D02*
X141195000Y-40112500D01*
X138595000Y-42772500D02*
X138595000Y-40112500D01*
X135995000Y-41442500D02*
X135995000Y-40112500D01*
X138595000Y-42772500D02*
X141195000Y-42772500D01*
X138595000Y-40112500D02*
X141195000Y-40112500D01*
X135995000Y-40112500D02*
X137325000Y-40112500D01*
X127695336Y-117569700D02*
X128149464Y-117569700D01*
X127695336Y-119039700D02*
X128149464Y-119039700D01*
X118952400Y-74717500D02*
X118952400Y-73387500D01*
X121552400Y-73387500D02*
X134312400Y-73387500D01*
X134312400Y-76047500D02*
X134312400Y-73387500D01*
X118952400Y-73387500D02*
X120282400Y-73387500D01*
X121552400Y-76047500D02*
X134312400Y-76047500D01*
X121552400Y-76047500D02*
X121552400Y-73387500D01*
X88410000Y-106757500D02*
X85590000Y-106757500D01*
X89710000Y-117177500D02*
X84290000Y-117177500D01*
X84290000Y-108457500D02*
X84290000Y-117177500D01*
X85590000Y-106757500D02*
X84290000Y-108457500D01*
X88410000Y-106757500D02*
X89710000Y-108457500D01*
X89710000Y-108457500D02*
X89710000Y-117177500D01*
X131680000Y-94837500D02*
X118920000Y-94837500D01*
X131680000Y-97497500D02*
X118920000Y-97497500D01*
X131680000Y-94837500D02*
X131680000Y-97497500D01*
X118920000Y-94837500D02*
X118920000Y-97497500D01*
X134280000Y-96167500D02*
X134280000Y-97497500D01*
X134280000Y-97497500D02*
X132950000Y-97497500D01*
X127695336Y-121369700D02*
X128149464Y-121369700D01*
X127695336Y-122839700D02*
X128149464Y-122839700D01*
X85760000Y-99715436D02*
X85760000Y-100169564D01*
X84290000Y-99715436D02*
X84290000Y-100169564D01*
X108435000Y-43852500D02*
X107385000Y-43852500D01*
X102215000Y-42702500D02*
X102215000Y-43852500D01*
X102215000Y-43852500D02*
X103265000Y-43852500D01*
X108435000Y-42702500D02*
X108435000Y-43852500D01*
X103385000Y-40732500D02*
X107265000Y-40732500D01*
X103265000Y-43852500D02*
X103265000Y-44842500D01*
X114296800Y-122506900D02*
X111696800Y-122506900D01*
X116896800Y-122506900D02*
X115566800Y-122506900D01*
X116896800Y-121176900D02*
X116896800Y-122506900D01*
X114296800Y-119846900D02*
X114296800Y-122506900D01*
X114296800Y-119846900D02*
X111696800Y-119846900D01*
X111696800Y-119846900D02*
X111696800Y-122506900D01*
X92922000Y-117239300D02*
X92922000Y-99459300D01*
X92922000Y-117239300D02*
X116798000Y-117239300D01*
X93370000Y-106571300D02*
X93370000Y-116791300D01*
X93370000Y-116791300D02*
X96030000Y-116791300D01*
X93370000Y-105301300D02*
X93370000Y-103971300D01*
X93370000Y-106571300D02*
X96030000Y-106571300D01*
X116798000Y-117239300D02*
X116798000Y-99459300D01*
X96030000Y-106571300D02*
X96030000Y-116791300D01*
X92922000Y-99459300D02*
X116798000Y-99459300D01*
X93370000Y-103971300D02*
X94700000Y-103971300D01*
X125355000Y-42672500D02*
X124025000Y-42672500D01*
X120155000Y-40012500D02*
X120155000Y-42672500D01*
X122755000Y-40012500D02*
X120155000Y-40012500D01*
X125355000Y-41342500D02*
X125355000Y-42672500D01*
X122755000Y-40012500D02*
X122755000Y-42672500D01*
X122755000Y-42672500D02*
X120155000Y-42672500D01*
X114195000Y-90822500D02*
X114195000Y-78062500D01*
X116855000Y-92092500D02*
X116855000Y-93422500D01*
X116855000Y-90822500D02*
X116855000Y-78062500D01*
X116855000Y-78062500D02*
X114195000Y-78062500D01*
X116855000Y-90822500D02*
X114195000Y-90822500D01*
X116855000Y-93422500D02*
X115525000Y-93422500D01*
X152980000Y-119912500D02*
X150380000Y-119912500D01*
X152980000Y-122572500D02*
X150380000Y-122572500D01*
X155580000Y-121242500D02*
X155580000Y-122572500D01*
X152980000Y-119912500D02*
X152980000Y-122572500D01*
X155580000Y-122572500D02*
X154250000Y-122572500D01*
X150380000Y-119912500D02*
X150380000Y-122572500D01*
X134445000Y-80795000D02*
X137105000Y-80795000D01*
X134445000Y-80795000D02*
X134445000Y-93555000D01*
X137105000Y-80795000D02*
X137105000Y-93555000D01*
X135775000Y-78195000D02*
X137105000Y-78195000D01*
X137105000Y-78195000D02*
X137105000Y-79525000D01*
X134445000Y-93555000D02*
X137105000Y-93555000D01*
X137925500Y-117919800D02*
X137925500Y-52919800D01*
X137925500Y-52919800D02*
X167925500Y-52919800D01*
X166814500Y-60477800D02*
X164214500Y-60477800D01*
X161614500Y-63077800D02*
X161614500Y-111397800D01*
X164214500Y-63077800D02*
X161614500Y-63077800D01*
X166814500Y-111397800D02*
X161614500Y-111397800D01*
X137925500Y-117919800D02*
X167925500Y-117919800D01*
X161614500Y-60477800D02*
X161614500Y-61807800D01*
X162944500Y-60477800D02*
X161614500Y-60477800D01*
X167925500Y-117919800D02*
X167925500Y-52919800D01*
X164214500Y-60477800D02*
X164214500Y-63077800D01*
X166814500Y-60477800D02*
X166814500Y-111397800D01*
X100615000Y-93757500D02*
X100615000Y-60677500D01*
X88035000Y-93757500D02*
X85375000Y-93757500D01*
X85375000Y-96357500D02*
X85375000Y-95027500D01*
X100735000Y-96357500D02*
X100735000Y-95027500D01*
X88035000Y-93757500D02*
X88035000Y-60677500D01*
X86705000Y-96357500D02*
X85375000Y-96357500D01*
X88035000Y-60677500D02*
X85375000Y-60677500D01*
X103275000Y-93757500D02*
X103275000Y-60677500D01*
X101945000Y-96357500D02*
X100735000Y-96357500D01*
X85375000Y-93757500D02*
X85375000Y-60677500D01*
X103275000Y-60677500D02*
X100615000Y-60677500D01*
X103275000Y-93757500D02*
X100615000Y-93757500D01*
X103682400Y-119894700D02*
X103682400Y-118904700D01*
X104732400Y-119894700D02*
X103682400Y-119894700D01*
X98512400Y-119894700D02*
X99562400Y-119894700D01*
X104732400Y-121044700D02*
X104732400Y-119894700D01*
X103562400Y-123014700D02*
X99682400Y-123014700D01*
X98512400Y-121044700D02*
X98512400Y-119894700D01*
X92265000Y-42852500D02*
X92265000Y-43842500D01*
X97435000Y-41702500D02*
X97435000Y-42852500D01*
X91215000Y-41702500D02*
X91215000Y-42852500D01*
X91215000Y-42852500D02*
X92265000Y-42852500D01*
X92385000Y-39732500D02*
X96265000Y-39732500D01*
X97435000Y-42852500D02*
X96385000Y-42852500D01*
X154385000Y-39732500D02*
X158265000Y-39732500D01*
X159435000Y-42852500D02*
X158385000Y-42852500D01*
X153215000Y-42852500D02*
X154265000Y-42852500D01*
X154265000Y-42852500D02*
X154265000Y-43842500D01*
X159435000Y-41702500D02*
X159435000Y-42852500D01*
X153215000Y-41702500D02*
X153215000Y-42852500D01*
X143160000Y-120190000D02*
X143160000Y-119200000D01*
X137990000Y-120190000D02*
X139040000Y-120190000D01*
X137990000Y-121340000D02*
X137990000Y-120190000D01*
X144210000Y-121340000D02*
X144210000Y-120190000D01*
X143040000Y-123310000D02*
X139160000Y-123310000D01*
X144210000Y-120190000D02*
X143160000Y-120190000D01*
%LPC*%
D13*
X95125000Y-94282500D03*
D14*
X95125000Y-91742500D03*
D15*
X95125000Y-89202500D03*
X95125000Y-86662500D03*
X95125000Y-84122500D03*
X95125000Y-81582500D03*
X95125000Y-79042500D03*
X107825000Y-79042500D03*
X107825000Y-81582500D03*
X107825000Y-84122500D03*
X107825000Y-86662500D03*
X107825000Y-89202500D03*
D14*
X107825000Y-91742500D03*
D13*
X107825000Y-94282500D03*
X120975000Y-118200000D03*
D14*
X120975000Y-115660000D03*
D15*
X120975000Y-113120000D03*
X120975000Y-110580000D03*
X120975000Y-108040000D03*
X120975000Y-105500000D03*
X120975000Y-102960000D03*
X133675000Y-102960000D03*
X133675000Y-105500000D03*
X133675000Y-108040000D03*
X133675000Y-110580000D03*
X133675000Y-113120000D03*
D14*
X133675000Y-115660000D03*
D13*
X133675000Y-118200000D03*
D14*
X137325000Y-41442500D03*
D15*
X139865000Y-41442500D03*
D16*
X127009900Y-118304700D03*
X128834900Y-118304700D03*
D14*
X120282400Y-74717500D03*
D15*
X122822400Y-74717500D03*
X125362400Y-74717500D03*
X127902400Y-74717500D03*
X130442400Y-74717500D03*
X132982400Y-74717500D03*
D17*
X87000000Y-109467500D03*
D18*
X87000000Y-114467500D03*
D14*
X132950000Y-96167500D03*
D15*
X130410000Y-96167500D03*
X127870000Y-96167500D03*
X125330000Y-96167500D03*
X122790000Y-96167500D03*
X120250000Y-96167500D03*
D16*
X127009900Y-122104700D03*
X128834900Y-122104700D03*
D19*
X85025000Y-99030000D03*
X85025000Y-100855000D03*
D20*
X103825000Y-44067500D03*
X104825000Y-44067500D03*
X105825000Y-44067500D03*
X106825000Y-44067500D03*
D21*
X102525000Y-41542500D03*
X108125000Y-41542500D03*
D14*
X115566800Y-121176900D03*
D15*
X113026800Y-121176900D03*
D13*
X94700000Y-105301300D03*
D14*
X94700000Y-107841300D03*
X94700000Y-110381300D03*
D15*
X94700000Y-112921300D03*
X94700000Y-115461300D03*
D14*
X124025000Y-41342500D03*
D15*
X121485000Y-41342500D03*
D13*
X133059000Y-53285000D03*
D14*
X133059000Y-55825000D03*
D15*
X133059000Y-58365000D03*
X133059000Y-60905000D03*
X133059000Y-63445000D03*
X133059000Y-65985000D03*
X133059000Y-68525000D03*
X120359000Y-68525000D03*
X120359000Y-65985000D03*
X120359000Y-63445000D03*
X120359000Y-60905000D03*
X120359000Y-58365000D03*
D14*
X120359000Y-55825000D03*
D13*
X120359000Y-53285000D03*
D14*
X115525000Y-92092500D03*
D15*
X115525000Y-89552500D03*
X115525000Y-87012500D03*
X115525000Y-84472500D03*
X115525000Y-81932500D03*
X115525000Y-79392500D03*
D14*
X154250000Y-121242500D03*
D15*
X151710000Y-121242500D03*
D14*
X135775000Y-79525000D03*
D15*
X135775000Y-82065000D03*
X135775000Y-84605000D03*
X135775000Y-87145000D03*
X135775000Y-89685000D03*
X135775000Y-92225000D03*
D14*
X162944500Y-61807800D03*
D15*
X165484500Y-61807800D03*
X162944500Y-64347800D03*
X165484500Y-64347800D03*
X162944500Y-66887800D03*
X165484500Y-66887800D03*
X162944500Y-69427800D03*
X165484500Y-69427800D03*
X162944500Y-71967800D03*
X165484500Y-71967800D03*
X162944500Y-74507800D03*
X165484500Y-74507800D03*
X162944500Y-77047800D03*
X165484500Y-77047800D03*
X162944500Y-79587800D03*
X165484500Y-79587800D03*
X162944500Y-82127800D03*
X165484500Y-82127800D03*
X162944500Y-84667800D03*
X165484500Y-84667800D03*
X162944500Y-87207800D03*
X165484500Y-87207800D03*
X162944500Y-89747800D03*
X165484500Y-89747800D03*
X162944500Y-92287800D03*
X165484500Y-92287800D03*
X162944500Y-94827800D03*
X165484500Y-94827800D03*
X162944500Y-97367800D03*
X165484500Y-97367800D03*
X162944500Y-99907800D03*
X165484500Y-99907800D03*
X162944500Y-102447800D03*
X165484500Y-102447800D03*
X162944500Y-104987800D03*
X165484500Y-104987800D03*
X162944500Y-107527800D03*
X165484500Y-107527800D03*
X162944500Y-110067800D03*
X165484500Y-110067800D03*
D13*
X156150000Y-82185000D03*
D14*
X156150000Y-84725000D03*
D15*
X156150000Y-87265000D03*
X156150000Y-89805000D03*
X156150000Y-92345000D03*
X156150000Y-94885000D03*
X156150000Y-97425000D03*
X143450000Y-97425000D03*
X143450000Y-94885000D03*
X143450000Y-92345000D03*
X143450000Y-89805000D03*
X143450000Y-87265000D03*
D14*
X143450000Y-84725000D03*
D13*
X143450000Y-82185000D03*
D14*
X101945000Y-95027500D03*
D15*
X86705000Y-95027500D03*
X101945000Y-92487500D03*
X86705000Y-92487500D03*
X101945000Y-89947500D03*
X86705000Y-89947500D03*
X101945000Y-87407500D03*
X86705000Y-87407500D03*
X101945000Y-84867500D03*
X86705000Y-84867500D03*
X101945000Y-82327500D03*
X86705000Y-82327500D03*
X101945000Y-79787500D03*
X86705000Y-79787500D03*
X101945000Y-77247500D03*
X86705000Y-77247500D03*
X101945000Y-74707500D03*
X86705000Y-74707500D03*
X101945000Y-72167500D03*
X86705000Y-72167500D03*
X101945000Y-69627500D03*
X86705000Y-69627500D03*
X101945000Y-67087500D03*
X86705000Y-67087500D03*
X101945000Y-64547500D03*
X86705000Y-64547500D03*
X101945000Y-62007500D03*
X86705000Y-62007500D03*
D22*
X103122400Y-119679700D03*
X102122400Y-119679700D03*
X101122400Y-119679700D03*
X100122400Y-119679700D03*
D23*
X104422400Y-122204700D03*
X98822400Y-122204700D03*
D20*
X92825000Y-43067500D03*
X93825000Y-43067500D03*
X94825000Y-43067500D03*
X95825000Y-43067500D03*
D21*
X97125000Y-40542500D03*
X91525000Y-40542500D03*
D20*
X154825000Y-43067500D03*
X155825000Y-43067500D03*
X156825000Y-43067500D03*
X157825000Y-43067500D03*
D21*
X153525000Y-40542500D03*
X159125000Y-40542500D03*
D22*
X142600000Y-119975000D03*
X141600000Y-119975000D03*
X140600000Y-119975000D03*
X139600000Y-119975000D03*
D23*
X138300000Y-122500000D03*
X143900000Y-122500000D03*
M02*
