%TF.GenerationSoftware,KiCad,Pcbnew,(6.0.8)*%
%TF.CreationDate,2023-03-18T14:47:44-05:00*%
%TF.ProjectId,board1,626f6172-6431-42e6-9b69-6361645f7063,rev?*%
%TF.SameCoordinates,Original*%
%TF.FileFunction,Legend,Bot*%
%TF.FilePolarity,Positive*%
%FSLAX46Y46*%
G04 Gerber Fmt 4.6, Leading zero omitted, Abs format (unit mm)*
G04 Created by KiCad (PCBNEW (6.0.8)) date 2023-03-18 14:47:44*
%MOMM*%
%LPD*%
G01*
G04 APERTURE LIST*
%ADD10C,0.150000*%
%ADD11C,0.120000*%
%ADD12C,1.700000*%
%ADD13R,1.700000X1.700000*%
%ADD14O,1.700000X1.700000*%
%ADD15R,3.800000X3.800000*%
%ADD16C,3.800000*%
G04 APERTURE END LIST*
D10*
X100165476Y-98650119D02*
X100165476Y-99650119D01*
X100498809Y-98935833D01*
X100832142Y-99650119D01*
X100832142Y-98650119D01*
X101879761Y-98745357D02*
X101832142Y-98697738D01*
X101689285Y-98650119D01*
X101594047Y-98650119D01*
X101451190Y-98697738D01*
X101355952Y-98792976D01*
X101308333Y-98888214D01*
X101260714Y-99078690D01*
X101260714Y-99221547D01*
X101308333Y-99412023D01*
X101355952Y-99507261D01*
X101451190Y-99602500D01*
X101594047Y-99650119D01*
X101689285Y-99650119D01*
X101832142Y-99602500D01*
X101879761Y-99554880D01*
X102832142Y-98650119D02*
X102260714Y-98650119D01*
X102546428Y-98650119D02*
X102546428Y-99650119D01*
X102451190Y-99507261D01*
X102355952Y-99412023D01*
X102260714Y-99364404D01*
X128234523Y-100694880D02*
X128234523Y-99694880D01*
X127901190Y-100409166D01*
X127567857Y-99694880D01*
X127567857Y-100694880D01*
X126520238Y-100599642D02*
X126567857Y-100647261D01*
X126710714Y-100694880D01*
X126805952Y-100694880D01*
X126948809Y-100647261D01*
X127044047Y-100552023D01*
X127091666Y-100456785D01*
X127139285Y-100266309D01*
X127139285Y-100123452D01*
X127091666Y-99932976D01*
X127044047Y-99837738D01*
X126948809Y-99742500D01*
X126805952Y-99694880D01*
X126710714Y-99694880D01*
X126567857Y-99742500D01*
X126520238Y-99790119D01*
X126139285Y-99790119D02*
X126091666Y-99742500D01*
X125996428Y-99694880D01*
X125758333Y-99694880D01*
X125663095Y-99742500D01*
X125615476Y-99790119D01*
X125567857Y-99885357D01*
X125567857Y-99980595D01*
X125615476Y-100123452D01*
X126186904Y-100694880D01*
X125567857Y-100694880D01*
X128018523Y-50694880D02*
X128018523Y-49694880D01*
X127685190Y-50409166D01*
X127351857Y-49694880D01*
X127351857Y-50694880D01*
X126304238Y-50599642D02*
X126351857Y-50647261D01*
X126494714Y-50694880D01*
X126589952Y-50694880D01*
X126732809Y-50647261D01*
X126828047Y-50552023D01*
X126875666Y-50456785D01*
X126923285Y-50266309D01*
X126923285Y-50123452D01*
X126875666Y-49932976D01*
X126828047Y-49837738D01*
X126732809Y-49742500D01*
X126589952Y-49694880D01*
X126494714Y-49694880D01*
X126351857Y-49742500D01*
X126304238Y-49790119D01*
X125970904Y-49694880D02*
X125351857Y-49694880D01*
X125685190Y-50075833D01*
X125542333Y-50075833D01*
X125447095Y-50123452D01*
X125399476Y-50171071D01*
X125351857Y-50266309D01*
X125351857Y-50504404D01*
X125399476Y-50599642D01*
X125447095Y-50647261D01*
X125542333Y-50694880D01*
X125828047Y-50694880D01*
X125923285Y-50647261D01*
X125970904Y-50599642D01*
X151109523Y-77817380D02*
X151109523Y-76817380D01*
X150776190Y-77531666D01*
X150442857Y-76817380D01*
X150442857Y-77817380D01*
X149395238Y-77722142D02*
X149442857Y-77769761D01*
X149585714Y-77817380D01*
X149680952Y-77817380D01*
X149823809Y-77769761D01*
X149919047Y-77674523D01*
X149966666Y-77579285D01*
X150014285Y-77388809D01*
X150014285Y-77245952D01*
X149966666Y-77055476D01*
X149919047Y-76960238D01*
X149823809Y-76865000D01*
X149680952Y-76817380D01*
X149585714Y-76817380D01*
X149442857Y-76865000D01*
X149395238Y-76912619D01*
X148538095Y-77150714D02*
X148538095Y-77817380D01*
X148776190Y-76769761D02*
X149014285Y-77484047D01*
X148395238Y-77484047D01*
D11*
X96455000Y-93012500D02*
X96455000Y-77712500D01*
X93795000Y-77712500D02*
X96455000Y-77712500D01*
X93795000Y-93012500D02*
X93795000Y-77712500D01*
X106495000Y-93012500D02*
X109155000Y-93012500D01*
X109155000Y-93012500D02*
X109155000Y-77712500D01*
X93795000Y-93012500D02*
X96455000Y-93012500D01*
X106495000Y-77712500D02*
X109155000Y-77712500D01*
X109155000Y-95612500D02*
X109155000Y-94282500D01*
X106495000Y-93012500D02*
X106495000Y-77712500D01*
X96455000Y-95612500D02*
X96455000Y-94282500D01*
X107825000Y-95612500D02*
X109155000Y-95612500D01*
X95125000Y-95612500D02*
X96455000Y-95612500D01*
X119645000Y-101630000D02*
X122305000Y-101630000D01*
X132345000Y-101630000D02*
X135005000Y-101630000D01*
X133675000Y-119530000D02*
X135005000Y-119530000D01*
X132345000Y-116930000D02*
X135005000Y-116930000D01*
X132345000Y-116930000D02*
X132345000Y-101630000D01*
X135005000Y-119530000D02*
X135005000Y-118200000D01*
X119645000Y-116930000D02*
X119645000Y-101630000D01*
X122305000Y-119530000D02*
X122305000Y-118200000D01*
X135005000Y-116930000D02*
X135005000Y-101630000D01*
X119645000Y-116930000D02*
X122305000Y-116930000D01*
X122305000Y-116930000D02*
X122305000Y-101630000D01*
X120975000Y-119530000D02*
X122305000Y-119530000D01*
X119029000Y-51955000D02*
X119029000Y-53285000D01*
X121689000Y-54555000D02*
X121689000Y-69855000D01*
X119029000Y-54555000D02*
X119029000Y-69855000D01*
X133059000Y-51955000D02*
X131729000Y-51955000D01*
X121689000Y-54555000D02*
X119029000Y-54555000D01*
X134389000Y-54555000D02*
X131729000Y-54555000D01*
X121689000Y-69855000D02*
X119029000Y-69855000D01*
X131729000Y-54555000D02*
X131729000Y-69855000D01*
X134389000Y-69855000D02*
X131729000Y-69855000D01*
X120359000Y-51955000D02*
X119029000Y-51955000D01*
X134389000Y-54555000D02*
X134389000Y-69855000D01*
X131729000Y-51955000D02*
X131729000Y-53285000D01*
X157480000Y-98755000D02*
X154820000Y-98755000D01*
X157480000Y-83455000D02*
X157480000Y-98755000D01*
X154820000Y-80855000D02*
X154820000Y-82185000D01*
X154820000Y-83455000D02*
X154820000Y-98755000D01*
X144780000Y-83455000D02*
X142120000Y-83455000D01*
X144780000Y-83455000D02*
X144780000Y-98755000D01*
X142120000Y-80855000D02*
X142120000Y-82185000D01*
X157480000Y-83455000D02*
X154820000Y-83455000D01*
X156150000Y-80855000D02*
X154820000Y-80855000D01*
X143450000Y-80855000D02*
X142120000Y-80855000D01*
X142120000Y-83455000D02*
X142120000Y-98755000D01*
X144780000Y-98755000D02*
X142120000Y-98755000D01*
%LPC*%
D12*
X95125000Y-94282500D03*
D13*
X95125000Y-91742500D03*
D14*
X95125000Y-89202500D03*
X95125000Y-86662500D03*
X95125000Y-84122500D03*
X95125000Y-81582500D03*
X95125000Y-79042500D03*
X107825000Y-79042500D03*
X107825000Y-81582500D03*
X107825000Y-84122500D03*
X107825000Y-86662500D03*
X107825000Y-89202500D03*
D13*
X107825000Y-91742500D03*
D12*
X107825000Y-94282500D03*
X120975000Y-118200000D03*
D13*
X120975000Y-115660000D03*
D14*
X120975000Y-113120000D03*
X120975000Y-110580000D03*
X120975000Y-108040000D03*
X120975000Y-105500000D03*
X120975000Y-102960000D03*
X133675000Y-102960000D03*
X133675000Y-105500000D03*
X133675000Y-108040000D03*
X133675000Y-110580000D03*
X133675000Y-113120000D03*
D13*
X133675000Y-115660000D03*
D12*
X133675000Y-118200000D03*
D13*
X137325000Y-41442500D03*
D14*
X139865000Y-41442500D03*
D13*
X120282400Y-74717500D03*
D14*
X122822400Y-74717500D03*
X125362400Y-74717500D03*
X127902400Y-74717500D03*
X130442400Y-74717500D03*
X132982400Y-74717500D03*
D15*
X87000000Y-109467500D03*
D16*
X87000000Y-114467500D03*
D13*
X132950000Y-96167500D03*
D14*
X130410000Y-96167500D03*
X127870000Y-96167500D03*
X125330000Y-96167500D03*
X122790000Y-96167500D03*
X120250000Y-96167500D03*
D13*
X115566800Y-121176900D03*
D14*
X113026800Y-121176900D03*
D12*
X94700000Y-105301300D03*
D13*
X94700000Y-107841300D03*
X94700000Y-110381300D03*
D14*
X94700000Y-112921300D03*
X94700000Y-115461300D03*
D13*
X124025000Y-41342500D03*
D14*
X121485000Y-41342500D03*
D12*
X133059000Y-53285000D03*
D13*
X133059000Y-55825000D03*
D14*
X133059000Y-58365000D03*
X133059000Y-60905000D03*
X133059000Y-63445000D03*
X133059000Y-65985000D03*
X133059000Y-68525000D03*
X120359000Y-68525000D03*
X120359000Y-65985000D03*
X120359000Y-63445000D03*
X120359000Y-60905000D03*
X120359000Y-58365000D03*
D13*
X120359000Y-55825000D03*
D12*
X120359000Y-53285000D03*
D13*
X115525000Y-92092500D03*
D14*
X115525000Y-89552500D03*
X115525000Y-87012500D03*
X115525000Y-84472500D03*
X115525000Y-81932500D03*
X115525000Y-79392500D03*
D13*
X154250000Y-121242500D03*
D14*
X151710000Y-121242500D03*
D13*
X135775000Y-79525000D03*
D14*
X135775000Y-82065000D03*
X135775000Y-84605000D03*
X135775000Y-87145000D03*
X135775000Y-89685000D03*
X135775000Y-92225000D03*
D13*
X162944500Y-61807800D03*
D14*
X165484500Y-61807800D03*
X162944500Y-64347800D03*
X165484500Y-64347800D03*
X162944500Y-66887800D03*
X165484500Y-66887800D03*
X162944500Y-69427800D03*
X165484500Y-69427800D03*
X162944500Y-71967800D03*
X165484500Y-71967800D03*
X162944500Y-74507800D03*
X165484500Y-74507800D03*
X162944500Y-77047800D03*
X165484500Y-77047800D03*
X162944500Y-79587800D03*
X165484500Y-79587800D03*
X162944500Y-82127800D03*
X165484500Y-82127800D03*
X162944500Y-84667800D03*
X165484500Y-84667800D03*
X162944500Y-87207800D03*
X165484500Y-87207800D03*
X162944500Y-89747800D03*
X165484500Y-89747800D03*
X162944500Y-92287800D03*
X165484500Y-92287800D03*
X162944500Y-94827800D03*
X165484500Y-94827800D03*
X162944500Y-97367800D03*
X165484500Y-97367800D03*
X162944500Y-99907800D03*
X165484500Y-99907800D03*
X162944500Y-102447800D03*
X165484500Y-102447800D03*
X162944500Y-104987800D03*
X165484500Y-104987800D03*
X162944500Y-107527800D03*
X165484500Y-107527800D03*
X162944500Y-110067800D03*
X165484500Y-110067800D03*
D12*
X156150000Y-82185000D03*
D13*
X156150000Y-84725000D03*
D14*
X156150000Y-87265000D03*
X156150000Y-89805000D03*
X156150000Y-92345000D03*
X156150000Y-94885000D03*
X156150000Y-97425000D03*
X143450000Y-97425000D03*
X143450000Y-94885000D03*
X143450000Y-92345000D03*
X143450000Y-89805000D03*
X143450000Y-87265000D03*
D13*
X143450000Y-84725000D03*
D12*
X143450000Y-82185000D03*
D13*
X101945000Y-95027500D03*
D14*
X86705000Y-95027500D03*
X101945000Y-92487500D03*
X86705000Y-92487500D03*
X101945000Y-89947500D03*
X86705000Y-89947500D03*
X101945000Y-87407500D03*
X86705000Y-87407500D03*
X101945000Y-84867500D03*
X86705000Y-84867500D03*
X101945000Y-82327500D03*
X86705000Y-82327500D03*
X101945000Y-79787500D03*
X86705000Y-79787500D03*
X101945000Y-77247500D03*
X86705000Y-77247500D03*
X101945000Y-74707500D03*
X86705000Y-74707500D03*
X101945000Y-72167500D03*
X86705000Y-72167500D03*
X101945000Y-69627500D03*
X86705000Y-69627500D03*
X101945000Y-67087500D03*
X86705000Y-67087500D03*
X101945000Y-64547500D03*
X86705000Y-64547500D03*
X101945000Y-62007500D03*
X86705000Y-62007500D03*
M02*
