%TF.GenerationSoftware,KiCad,Pcbnew,(6.0.8)*%
%TF.CreationDate,2023-03-18T14:48:20-05:00*%
%TF.ProjectId,board1,626f6172-6431-42e6-9b69-6361645f7063,rev?*%
%TF.SameCoordinates,Original*%
%TF.FileFunction,Drillmap*%
%TF.FilePolarity,Positive*%
%FSLAX45Y45*%
G04 Gerber Fmt 4.5, Leading zero omitted, Abs format (unit mm)*
G04 Created by KiCad (PCBNEW (6.0.8)) date 2023-03-18 14:48:20*
%MOMM*%
%LPD*%
G01*
G04 APERTURE LIST*
%ADD10C,0.200000*%
%ADD11C,0.100000*%
G04 APERTURE END LIST*
D10*
X16489620Y-12151750D02*
G75*
G03*
X16489620Y-12151750I-134620J0D01*
G01*
X8579620Y-4246750D02*
G75*
G03*
X8579620Y-4246750I-134620J0D01*
G01*
X8442500Y-3696750D02*
X16350000Y-3694250D01*
X16902500Y-4241761D02*
G75*
G03*
X16350000Y-3694250I-550006J-2494D01*
G01*
X16357489Y-12701750D02*
X8450000Y-12704250D01*
D11*
X13285580Y-9219490D02*
X12015580Y-9219490D01*
X12015580Y-9219490D02*
X12015580Y-7949490D01*
X12015580Y-7949490D02*
X13285580Y-7949490D01*
X13285580Y-7949490D02*
X13285580Y-9219490D01*
D10*
X7897500Y-12156739D02*
X7895000Y-4249250D01*
X7897500Y-12156739D02*
G75*
G03*
X8450000Y-12704250I550006J2494D01*
G01*
X16902500Y-4241761D02*
X16905000Y-12149250D01*
X8442511Y-3696750D02*
G75*
G03*
X7895000Y-4249250I2494J-550006D01*
G01*
X8582120Y-12154250D02*
G75*
G03*
X8582120Y-12154250I-134620J0D01*
G01*
X16487120Y-4244250D02*
G75*
G03*
X16487120Y-4244250I-134620J0D01*
G01*
X16357489Y-12701750D02*
G75*
G03*
X16905000Y-12149250I-2494J550006D01*
G01*
X8142613Y-13024732D02*
X8142613Y-12824732D01*
X8190232Y-12824732D01*
X8218804Y-12834256D01*
X8237851Y-12853303D01*
X8247375Y-12872351D01*
X8256899Y-12910446D01*
X8256899Y-12939017D01*
X8247375Y-12977113D01*
X8237851Y-12996160D01*
X8218804Y-13015208D01*
X8190232Y-13024732D01*
X8142613Y-13024732D01*
X8342613Y-13024732D02*
X8342613Y-12891398D01*
X8342613Y-12929494D02*
X8352137Y-12910446D01*
X8361661Y-12900922D01*
X8380709Y-12891398D01*
X8399756Y-12891398D01*
X8466423Y-13024732D02*
X8466423Y-12891398D01*
X8466423Y-12824732D02*
X8456899Y-12834256D01*
X8466423Y-12843779D01*
X8475947Y-12834256D01*
X8466423Y-12824732D01*
X8466423Y-12843779D01*
X8590232Y-13024732D02*
X8571185Y-13015208D01*
X8561661Y-12996160D01*
X8561661Y-12824732D01*
X8694994Y-13024732D02*
X8675947Y-13015208D01*
X8666423Y-12996160D01*
X8666423Y-12824732D01*
X8923566Y-13024732D02*
X8923566Y-12824732D01*
X8990232Y-12967589D01*
X9056899Y-12824732D01*
X9056899Y-13024732D01*
X9237852Y-13024732D02*
X9237852Y-12919970D01*
X9228328Y-12900922D01*
X9209280Y-12891398D01*
X9171185Y-12891398D01*
X9152137Y-12900922D01*
X9237852Y-13015208D02*
X9218804Y-13024732D01*
X9171185Y-13024732D01*
X9152137Y-13015208D01*
X9142613Y-12996160D01*
X9142613Y-12977113D01*
X9152137Y-12958065D01*
X9171185Y-12948541D01*
X9218804Y-12948541D01*
X9237852Y-12939017D01*
X9333090Y-12891398D02*
X9333090Y-13091398D01*
X9333090Y-12900922D02*
X9352137Y-12891398D01*
X9390232Y-12891398D01*
X9409280Y-12900922D01*
X9418804Y-12910446D01*
X9428328Y-12929494D01*
X9428328Y-12986636D01*
X9418804Y-13005684D01*
X9409280Y-13015208D01*
X9390232Y-13024732D01*
X9352137Y-13024732D01*
X9333090Y-13015208D01*
X9514042Y-13005684D02*
X9523566Y-13015208D01*
X9514042Y-13024732D01*
X9504518Y-13015208D01*
X9514042Y-13005684D01*
X9514042Y-13024732D01*
X9514042Y-12900922D02*
X9523566Y-12910446D01*
X9514042Y-12919970D01*
X9504518Y-12910446D01*
X9514042Y-12900922D01*
X9514042Y-12919970D01*
M02*
