M48
; DRILL file {KiCad (6.0.8)} date Sat Mar 18 14:48:16 2023
; FORMAT={-:-/ absolute / metric / decimal}
; #@! TF.CreationDate,2023-03-18T14:48:16-05:00
; #@! TF.GenerationSoftware,Kicad,Pcbnew,(6.0.8)
; #@! TF.FileFunction,Plated,1,4,PTH
FMAT,2
METRIC
; #@! TA.AperFunction,Plated,PTH,ViaDrill
T1C0.400
; #@! TA.AperFunction,Plated,PTH,ViaDrill
T2C0.600
; #@! TA.AperFunction,Plated,PTH,ComponentDrill
T3C1.000
; #@! TA.AperFunction,Plated,PTH,ComponentDrill
T4C2.700
%
G90
G05
T1
X82.1Y-59.2
X82.6Y-66.55
X82.65Y-117.392
X83.374Y-116.492
X83.525Y-74.667
X83.7Y-77.167
X83.925Y-125.117
X85.0Y-102.8
X85.05Y-51.95
X87.937Y-119.33
X88.475Y-48.775
X88.725Y-43.25
X89.475Y-126.017
X91.149Y-61.442
X91.3Y-118.775
X91.425Y-72.142
X91.675Y-85.675
X91.675Y-108.35
X91.8Y-95.0
X92.025Y-62.842
X92.175Y-99.05
X94.125Y-69.843
X95.425Y-69.843
X95.475Y-74.275
X95.625Y-54.642
X96.2Y-122.45
X96.325Y-46.742
X96.525Y-63.042
X97.525Y-96.942
X97.525Y-99.242
X97.625Y-47.642
X97.825Y-63.042
X98.225Y-46.718
X98.55Y-109.575
X98.725Y-96.942
X98.725Y-99.242
X99.398Y-116.169
X99.725Y-53.343
X99.725Y-54.442
X100.0Y-57.225
X101.125Y-116.692
X101.925Y-51.742
X103.125Y-51.843
X104.022Y-114.465
X104.225Y-110.542
X104.625Y-51.843
X105.05Y-65.075
X105.15Y-55.75
X105.525Y-71.45
X105.525Y-79.675
X105.825Y-45.642
X106.725Y-111.542
X106.825Y-46.442
X108.225Y-107.75
X108.725Y-119.4
X109.225Y-76.142
X109.537Y-48.192
X109.925Y-97.942
X109.925Y-98.942
X110.425Y-48.967
X110.625Y-76.042
X110.825Y-87.742
X111.549Y-85.542
X111.65Y-70.6
X113.375Y-55.4
X114.0Y-63.25
X114.225Y-41.3
X116.675Y-107.0
X117.425Y-97.925
X121.7Y-122.325
X124.525Y-115.475
X125.15Y-55.15
X125.375Y-119.918
X125.5Y-62.625
X127.01Y-122.105
X127.525Y-69.942
X128.2Y-41.55
X128.425Y-68.843
X128.7Y-107.375
X130.225Y-47.242
X130.625Y-48.242
X130.9Y-103.7
X136.425Y-75.125
X137.15Y-54.65
X137.65Y-50.5
X137.775Y-96.1
X140.6Y-59.675
X143.775Y-42.025
X144.325Y-70.542
X144.425Y-71.642
X144.525Y-114.725
X145.625Y-104.2
X146.825Y-68.043
X148.025Y-68.043
X148.45Y-73.775
X148.8Y-51.95
X148.8Y-118.175
X149.3Y-110.075
X149.8Y-41.55
X149.8Y-96.1
X150.525Y-65.925
X152.35Y-92.05
X152.6Y-103.95
X153.6Y-78.325
X156.775Y-62.025
X156.825Y-44.942
X157.625Y-70.225
X157.825Y-45.642
X158.1Y-50.442
X158.125Y-120.75
X158.425Y-53.742
X158.425Y-54.842
X159.9Y-51.742
X160.825Y-46.7
T2
X95.425Y-45.843
X99.025Y-45.843
X110.525Y-80.242
X110.625Y-41.163
X112.425Y-89.642
X112.425Y-100.742
X122.822Y-71.345
X123.425Y-103.942
X125.125Y-102.742
X129.525Y-64.642
X139.425Y-97.843
X140.525Y-79.942
X145.425Y-62.642
X145.425Y-98.843
T3
X86.705Y-62.008
X86.705Y-64.547
X86.705Y-67.087
X86.705Y-69.627
X86.705Y-72.167
X86.705Y-74.707
X86.705Y-77.248
X86.705Y-79.787
X86.705Y-82.328
X86.705Y-84.867
X86.705Y-87.407
X86.705Y-89.947
X86.705Y-92.487
X86.705Y-95.027
X94.7Y-105.301
X94.7Y-107.841
X94.7Y-110.381
X94.7Y-112.921
X94.7Y-115.461
X95.125Y-79.042
X95.125Y-81.582
X95.125Y-84.123
X95.125Y-86.662
X95.125Y-89.203
X95.125Y-91.742
X95.125Y-94.282
X101.945Y-62.008
X101.945Y-64.547
X101.945Y-67.087
X101.945Y-69.627
X101.945Y-72.167
X101.945Y-74.707
X101.945Y-77.248
X101.945Y-79.787
X101.945Y-82.328
X101.945Y-84.867
X101.945Y-87.407
X101.945Y-89.947
X101.945Y-92.487
X101.945Y-95.027
X107.825Y-79.042
X107.825Y-81.582
X107.825Y-84.123
X107.825Y-86.662
X107.825Y-89.203
X107.825Y-91.742
X107.825Y-94.282
X113.027Y-121.177
X115.525Y-79.392
X115.525Y-81.932
X115.525Y-84.472
X115.525Y-87.013
X115.525Y-89.552
X115.525Y-92.093
X115.567Y-121.177
X120.25Y-96.167
X120.282Y-74.718
X120.359Y-53.285
X120.359Y-55.825
X120.359Y-58.365
X120.359Y-60.905
X120.359Y-63.445
X120.359Y-65.985
X120.359Y-68.525
X120.975Y-102.96
X120.975Y-105.5
X120.975Y-108.04
X120.975Y-110.58
X120.975Y-113.12
X120.975Y-115.66
X120.975Y-118.2
X121.485Y-41.343
X122.79Y-96.167
X122.822Y-74.718
X124.025Y-41.343
X125.33Y-96.167
X125.362Y-74.718
X127.87Y-96.167
X127.902Y-74.718
X130.41Y-96.167
X130.442Y-74.718
X132.95Y-96.167
X132.982Y-74.718
X133.059Y-53.285
X133.059Y-55.825
X133.059Y-58.365
X133.059Y-60.905
X133.059Y-63.445
X133.059Y-65.985
X133.059Y-68.525
X133.675Y-102.96
X133.675Y-105.5
X133.675Y-108.04
X133.675Y-110.58
X133.675Y-113.12
X133.675Y-115.66
X133.675Y-118.2
X135.775Y-79.525
X135.775Y-82.065
X135.775Y-84.605
X135.775Y-87.145
X135.775Y-89.685
X135.775Y-92.225
X137.325Y-41.442
X139.865Y-41.442
X143.45Y-82.185
X143.45Y-84.725
X143.45Y-87.265
X143.45Y-89.805
X143.45Y-92.345
X143.45Y-94.885
X143.45Y-97.425
X151.71Y-121.242
X154.25Y-121.242
X156.15Y-82.185
X156.15Y-84.725
X156.15Y-87.265
X156.15Y-89.805
X156.15Y-92.345
X156.15Y-94.885
X156.15Y-97.425
X162.945Y-61.808
X162.945Y-64.348
X162.945Y-66.888
X162.945Y-69.428
X162.945Y-71.968
X162.945Y-74.508
X162.945Y-77.048
X162.945Y-79.588
X162.945Y-82.128
X162.945Y-84.668
X162.945Y-87.208
X162.945Y-89.748
X162.945Y-92.288
X162.945Y-94.828
X162.945Y-97.368
X162.945Y-99.908
X162.945Y-102.448
X162.945Y-104.988
X162.945Y-107.528
X162.945Y-110.068
X165.484Y-61.808
X165.484Y-64.348
X165.484Y-66.888
X165.484Y-69.428
X165.484Y-71.968
X165.484Y-74.508
X165.484Y-77.048
X165.484Y-79.588
X165.484Y-82.128
X165.484Y-84.668
X165.484Y-87.208
X165.484Y-89.748
X165.484Y-92.288
X165.484Y-94.828
X165.484Y-97.368
X165.484Y-99.908
X165.484Y-102.448
X165.484Y-104.988
X165.484Y-107.528
X165.484Y-110.068
T4
X87.0Y-109.468
X87.0Y-114.468
T0
M30
