%TF.GenerationSoftware,KiCad,Pcbnew,(6.0.8)*%
%TF.CreationDate,2023-03-18T14:47:44-05:00*%
%TF.ProjectId,board1,626f6172-6431-42e6-9b69-6361645f7063,rev?*%
%TF.SameCoordinates,Original*%
%TF.FileFunction,Soldermask,Bot*%
%TF.FilePolarity,Negative*%
%FSLAX46Y46*%
G04 Gerber Fmt 4.6, Leading zero omitted, Abs format (unit mm)*
G04 Created by KiCad (PCBNEW (6.0.8)) date 2023-03-18 14:47:44*
%MOMM*%
%LPD*%
G01*
G04 APERTURE LIST*
%ADD10C,1.700000*%
%ADD11R,1.700000X1.700000*%
%ADD12O,1.700000X1.700000*%
%ADD13R,3.800000X3.800000*%
%ADD14C,3.800000*%
G04 APERTURE END LIST*
D10*
X95125000Y-94282500D03*
D11*
X95125000Y-91742500D03*
D12*
X95125000Y-89202500D03*
X95125000Y-86662500D03*
X95125000Y-84122500D03*
X95125000Y-81582500D03*
X95125000Y-79042500D03*
X107825000Y-79042500D03*
X107825000Y-81582500D03*
X107825000Y-84122500D03*
X107825000Y-86662500D03*
X107825000Y-89202500D03*
D11*
X107825000Y-91742500D03*
D10*
X107825000Y-94282500D03*
X120975000Y-118200000D03*
D11*
X120975000Y-115660000D03*
D12*
X120975000Y-113120000D03*
X120975000Y-110580000D03*
X120975000Y-108040000D03*
X120975000Y-105500000D03*
X120975000Y-102960000D03*
X133675000Y-102960000D03*
X133675000Y-105500000D03*
X133675000Y-108040000D03*
X133675000Y-110580000D03*
X133675000Y-113120000D03*
D11*
X133675000Y-115660000D03*
D10*
X133675000Y-118200000D03*
D11*
X137325000Y-41442500D03*
D12*
X139865000Y-41442500D03*
D11*
X120282400Y-74717500D03*
D12*
X122822400Y-74717500D03*
X125362400Y-74717500D03*
X127902400Y-74717500D03*
X130442400Y-74717500D03*
X132982400Y-74717500D03*
D13*
X87000000Y-109467500D03*
D14*
X87000000Y-114467500D03*
D11*
X132950000Y-96167500D03*
D12*
X130410000Y-96167500D03*
X127870000Y-96167500D03*
X125330000Y-96167500D03*
X122790000Y-96167500D03*
X120250000Y-96167500D03*
D11*
X115566800Y-121176900D03*
D12*
X113026800Y-121176900D03*
D10*
X94700000Y-105301300D03*
D11*
X94700000Y-107841300D03*
X94700000Y-110381300D03*
D12*
X94700000Y-112921300D03*
X94700000Y-115461300D03*
D11*
X124025000Y-41342500D03*
D12*
X121485000Y-41342500D03*
D10*
X133059000Y-53285000D03*
D11*
X133059000Y-55825000D03*
D12*
X133059000Y-58365000D03*
X133059000Y-60905000D03*
X133059000Y-63445000D03*
X133059000Y-65985000D03*
X133059000Y-68525000D03*
X120359000Y-68525000D03*
X120359000Y-65985000D03*
X120359000Y-63445000D03*
X120359000Y-60905000D03*
X120359000Y-58365000D03*
D11*
X120359000Y-55825000D03*
D10*
X120359000Y-53285000D03*
D11*
X115525000Y-92092500D03*
D12*
X115525000Y-89552500D03*
X115525000Y-87012500D03*
X115525000Y-84472500D03*
X115525000Y-81932500D03*
X115525000Y-79392500D03*
D11*
X154250000Y-121242500D03*
D12*
X151710000Y-121242500D03*
D11*
X135775000Y-79525000D03*
D12*
X135775000Y-82065000D03*
X135775000Y-84605000D03*
X135775000Y-87145000D03*
X135775000Y-89685000D03*
X135775000Y-92225000D03*
D11*
X162944500Y-61807800D03*
D12*
X165484500Y-61807800D03*
X162944500Y-64347800D03*
X165484500Y-64347800D03*
X162944500Y-66887800D03*
X165484500Y-66887800D03*
X162944500Y-69427800D03*
X165484500Y-69427800D03*
X162944500Y-71967800D03*
X165484500Y-71967800D03*
X162944500Y-74507800D03*
X165484500Y-74507800D03*
X162944500Y-77047800D03*
X165484500Y-77047800D03*
X162944500Y-79587800D03*
X165484500Y-79587800D03*
X162944500Y-82127800D03*
X165484500Y-82127800D03*
X162944500Y-84667800D03*
X165484500Y-84667800D03*
X162944500Y-87207800D03*
X165484500Y-87207800D03*
X162944500Y-89747800D03*
X165484500Y-89747800D03*
X162944500Y-92287800D03*
X165484500Y-92287800D03*
X162944500Y-94827800D03*
X165484500Y-94827800D03*
X162944500Y-97367800D03*
X165484500Y-97367800D03*
X162944500Y-99907800D03*
X165484500Y-99907800D03*
X162944500Y-102447800D03*
X165484500Y-102447800D03*
X162944500Y-104987800D03*
X165484500Y-104987800D03*
X162944500Y-107527800D03*
X165484500Y-107527800D03*
X162944500Y-110067800D03*
X165484500Y-110067800D03*
D10*
X156150000Y-82185000D03*
D11*
X156150000Y-84725000D03*
D12*
X156150000Y-87265000D03*
X156150000Y-89805000D03*
X156150000Y-92345000D03*
X156150000Y-94885000D03*
X156150000Y-97425000D03*
X143450000Y-97425000D03*
X143450000Y-94885000D03*
X143450000Y-92345000D03*
X143450000Y-89805000D03*
X143450000Y-87265000D03*
D11*
X143450000Y-84725000D03*
D10*
X143450000Y-82185000D03*
D11*
X101945000Y-95027500D03*
D12*
X86705000Y-95027500D03*
X101945000Y-92487500D03*
X86705000Y-92487500D03*
X101945000Y-89947500D03*
X86705000Y-89947500D03*
X101945000Y-87407500D03*
X86705000Y-87407500D03*
X101945000Y-84867500D03*
X86705000Y-84867500D03*
X101945000Y-82327500D03*
X86705000Y-82327500D03*
X101945000Y-79787500D03*
X86705000Y-79787500D03*
X101945000Y-77247500D03*
X86705000Y-77247500D03*
X101945000Y-74707500D03*
X86705000Y-74707500D03*
X101945000Y-72167500D03*
X86705000Y-72167500D03*
X101945000Y-69627500D03*
X86705000Y-69627500D03*
X101945000Y-67087500D03*
X86705000Y-67087500D03*
X101945000Y-64547500D03*
X86705000Y-64547500D03*
X101945000Y-62007500D03*
X86705000Y-62007500D03*
M02*
