%TF.GenerationSoftware,KiCad,Pcbnew,7.0.9*%
%TF.CreationDate,2024-01-18T23:32:07-06:00*%
%TF.ProjectId,cv_lighting_pcb,63765f6c-6967-4687-9469-6e675f706362,rev?*%
%TF.SameCoordinates,Original*%
%TF.FileFunction,Drillmap*%
%TF.FilePolarity,Positive*%
%FSLAX45Y45*%
G04 Gerber Fmt 4.5, Leading zero omitted, Abs format (unit mm)*
G04 Created by KiCad (PCBNEW 7.0.9) date 2024-01-18 23:32:07*
%MOMM*%
%LPD*%
G01*
G04 APERTURE LIST*
%ADD10C,0.100000*%
%ADD11C,0.200000*%
G04 APERTURE END LIST*
D10*
X18034000Y-10668000D02*
G75*
G03*
X18034000Y-10668000I-254000J0D01*
G01*
X17650496Y-7522835D02*
G75*
G03*
X17650496Y-7522835I-140000J0D01*
G01*
X9906000Y-10668000D02*
G75*
G03*
X10414000Y-11176000I508000J0D01*
G01*
X16758920Y-8199120D02*
G75*
G03*
X16758920Y-8199120I0J0D01*
G01*
X13929503Y-8877165D02*
G75*
G03*
X13929503Y-8877165I-140000J0D01*
G01*
X18288000Y-5588000D02*
X18288000Y-10668000D01*
X18034000Y-5588000D02*
G75*
G03*
X18034000Y-5588000I-254000J0D01*
G01*
X15112834Y-6339503D02*
G75*
G03*
X15112834Y-6339503I-140000J0D01*
G01*
X10668000Y-10668000D02*
G75*
G03*
X10668000Y-10668000I-254000J0D01*
G01*
X18288000Y-5588000D02*
G75*
G03*
X17780000Y-5080000I-508000J0D01*
G01*
X10414000Y-5080000D02*
X17780000Y-5080000D01*
X9906000Y-10668000D02*
X9906000Y-5588000D01*
X17780000Y-11176000D02*
X10414000Y-11176000D01*
X10668000Y-5588000D02*
G75*
G03*
X10668000Y-5588000I-254000J0D01*
G01*
X17780000Y-11176000D02*
G75*
G03*
X18288000Y-10668000I0J508000D01*
G01*
X16606105Y-8199120D02*
G75*
G03*
X16606105Y-8199120I-1000001J0D01*
G01*
X12928600Y-10058400D02*
G75*
G03*
X12928600Y-10058400I-508348J0D01*
G01*
X16467165Y-10060497D02*
G75*
G03*
X16467165Y-10060497I-140000J0D01*
G01*
X10414000Y-5080000D02*
G75*
G03*
X9906000Y-5588000I0J-508000D01*
G01*
D11*
X10161777Y-11492484D02*
X10161777Y-11292484D01*
X10161777Y-11292484D02*
X10209396Y-11292484D01*
X10209396Y-11292484D02*
X10237967Y-11302008D01*
X10237967Y-11302008D02*
X10257015Y-11321055D01*
X10257015Y-11321055D02*
X10266539Y-11340103D01*
X10266539Y-11340103D02*
X10276063Y-11378198D01*
X10276063Y-11378198D02*
X10276063Y-11406769D01*
X10276063Y-11406769D02*
X10266539Y-11444865D01*
X10266539Y-11444865D02*
X10257015Y-11463912D01*
X10257015Y-11463912D02*
X10237967Y-11482960D01*
X10237967Y-11482960D02*
X10209396Y-11492484D01*
X10209396Y-11492484D02*
X10161777Y-11492484D01*
X10361777Y-11492484D02*
X10361777Y-11359150D01*
X10361777Y-11397246D02*
X10371301Y-11378198D01*
X10371301Y-11378198D02*
X10380824Y-11368674D01*
X10380824Y-11368674D02*
X10399872Y-11359150D01*
X10399872Y-11359150D02*
X10418920Y-11359150D01*
X10485586Y-11492484D02*
X10485586Y-11359150D01*
X10485586Y-11292484D02*
X10476063Y-11302008D01*
X10476063Y-11302008D02*
X10485586Y-11311531D01*
X10485586Y-11311531D02*
X10495110Y-11302008D01*
X10495110Y-11302008D02*
X10485586Y-11292484D01*
X10485586Y-11292484D02*
X10485586Y-11311531D01*
X10609396Y-11492484D02*
X10590348Y-11482960D01*
X10590348Y-11482960D02*
X10580824Y-11463912D01*
X10580824Y-11463912D02*
X10580824Y-11292484D01*
X10714158Y-11492484D02*
X10695110Y-11482960D01*
X10695110Y-11482960D02*
X10685586Y-11463912D01*
X10685586Y-11463912D02*
X10685586Y-11292484D01*
X10942729Y-11492484D02*
X10942729Y-11292484D01*
X10942729Y-11292484D02*
X11009396Y-11435341D01*
X11009396Y-11435341D02*
X11076063Y-11292484D01*
X11076063Y-11292484D02*
X11076063Y-11492484D01*
X11257015Y-11492484D02*
X11257015Y-11387722D01*
X11257015Y-11387722D02*
X11247491Y-11368674D01*
X11247491Y-11368674D02*
X11228443Y-11359150D01*
X11228443Y-11359150D02*
X11190348Y-11359150D01*
X11190348Y-11359150D02*
X11171301Y-11368674D01*
X11257015Y-11482960D02*
X11237967Y-11492484D01*
X11237967Y-11492484D02*
X11190348Y-11492484D01*
X11190348Y-11492484D02*
X11171301Y-11482960D01*
X11171301Y-11482960D02*
X11161777Y-11463912D01*
X11161777Y-11463912D02*
X11161777Y-11444865D01*
X11161777Y-11444865D02*
X11171301Y-11425817D01*
X11171301Y-11425817D02*
X11190348Y-11416293D01*
X11190348Y-11416293D02*
X11237967Y-11416293D01*
X11237967Y-11416293D02*
X11257015Y-11406769D01*
X11352253Y-11359150D02*
X11352253Y-11559150D01*
X11352253Y-11368674D02*
X11371301Y-11359150D01*
X11371301Y-11359150D02*
X11409396Y-11359150D01*
X11409396Y-11359150D02*
X11428443Y-11368674D01*
X11428443Y-11368674D02*
X11437967Y-11378198D01*
X11437967Y-11378198D02*
X11447491Y-11397246D01*
X11447491Y-11397246D02*
X11447491Y-11454388D01*
X11447491Y-11454388D02*
X11437967Y-11473436D01*
X11437967Y-11473436D02*
X11428443Y-11482960D01*
X11428443Y-11482960D02*
X11409396Y-11492484D01*
X11409396Y-11492484D02*
X11371301Y-11492484D01*
X11371301Y-11492484D02*
X11352253Y-11482960D01*
X11533205Y-11473436D02*
X11542729Y-11482960D01*
X11542729Y-11482960D02*
X11533205Y-11492484D01*
X11533205Y-11492484D02*
X11523682Y-11482960D01*
X11523682Y-11482960D02*
X11533205Y-11473436D01*
X11533205Y-11473436D02*
X11533205Y-11492484D01*
X11533205Y-11368674D02*
X11542729Y-11378198D01*
X11542729Y-11378198D02*
X11533205Y-11387722D01*
X11533205Y-11387722D02*
X11523682Y-11378198D01*
X11523682Y-11378198D02*
X11533205Y-11368674D01*
X11533205Y-11368674D02*
X11533205Y-11387722D01*
M02*
