%TF.GenerationSoftware,KiCad,Pcbnew,7.0.9*%
%TF.CreationDate,2024-01-18T23:26:29-06:00*%
%TF.ProjectId,cv_lighting_pcb,63765f6c-6967-4687-9469-6e675f706362,rev?*%
%TF.SameCoordinates,Original*%
%TF.FileFunction,Soldermask,Top*%
%TF.FilePolarity,Negative*%
%FSLAX46Y46*%
G04 Gerber Fmt 4.6, Leading zero omitted, Abs format (unit mm)*
G04 Created by KiCad (PCBNEW 7.0.9) date 2024-01-18 23:26:29*
%MOMM*%
%LPD*%
G01*
G04 APERTURE LIST*
G04 Aperture macros list*
%AMRoundRect*
0 Rectangle with rounded corners*
0 $1 Rounding radius*
0 $2 $3 $4 $5 $6 $7 $8 $9 X,Y pos of 4 corners*
0 Add a 4 corners polygon primitive as box body*
4,1,4,$2,$3,$4,$5,$6,$7,$8,$9,$2,$3,0*
0 Add four circle primitives for the rounded corners*
1,1,$1+$1,$2,$3*
1,1,$1+$1,$4,$5*
1,1,$1+$1,$6,$7*
1,1,$1+$1,$8,$9*
0 Add four rect primitives between the rounded corners*
20,1,$1+$1,$2,$3,$4,$5,0*
20,1,$1+$1,$4,$5,$6,$7,0*
20,1,$1+$1,$6,$7,$8,$9,0*
20,1,$1+$1,$8,$9,$2,$3,0*%
G04 Aperture macros list end*
%ADD10C,0.010000*%
%ADD11RoundRect,0.100000X-0.100000X-0.200000X0.100000X-0.200000X0.100000X0.200000X-0.100000X0.200000X0*%
%ADD12RoundRect,0.100000X0.200000X-0.100000X0.200000X0.100000X-0.200000X0.100000X-0.200000X-0.100000X0*%
%ADD13RoundRect,0.250000X-0.337500X-0.475000X0.337500X-0.475000X0.337500X0.475000X-0.337500X0.475000X0*%
%ADD14RoundRect,0.100000X0.100000X0.200000X-0.100000X0.200000X-0.100000X-0.200000X0.100000X-0.200000X0*%
%ADD15RoundRect,0.102000X-0.952500X0.510000X-0.952500X-0.510000X0.952500X-0.510000X0.952500X0.510000X0*%
%ADD16R,1.397000X1.193800*%
%ADD17R,1.701800X1.600200*%
%ADD18C,1.800000*%
%ADD19C,1.600000*%
%ADD20RoundRect,0.102000X-1.000000X1.000000X-1.000000X-1.000000X1.000000X-1.000000X1.000000X1.000000X0*%
%ADD21R,1.000000X1.900000*%
%ADD22RoundRect,0.250000X-0.475000X0.337500X-0.475000X-0.337500X0.475000X-0.337500X0.475000X0.337500X0*%
%ADD23RoundRect,0.250000X0.350000X0.450000X-0.350000X0.450000X-0.350000X-0.450000X0.350000X-0.450000X0*%
%ADD24RoundRect,0.150000X-0.150000X-0.250000X0.150000X-0.250000X0.150000X0.250000X-0.150000X0.250000X0*%
G04 APERTURE END LIST*
%TO.C,D4*%
D10*
X177800000Y-81228200D02*
X175000000Y-81228200D01*
X175000000Y-80678200D01*
X177800000Y-80678200D01*
X177800000Y-81228200D01*
G36*
X177800000Y-81228200D02*
G01*
X175000000Y-81228200D01*
X175000000Y-80678200D01*
X177800000Y-80678200D01*
X177800000Y-81228200D01*
G37*
X177800000Y-82578200D02*
X175000000Y-82578200D01*
X175000000Y-81578200D01*
X177800000Y-81578200D01*
X177800000Y-82578200D01*
G36*
X177800000Y-82578200D02*
G01*
X175000000Y-82578200D01*
X175000000Y-81578200D01*
X177800000Y-81578200D01*
X177800000Y-82578200D01*
G37*
X177800000Y-83478200D02*
X175000000Y-83478200D01*
X175000000Y-82928200D01*
X177800000Y-82928200D01*
X177800000Y-83478200D01*
G36*
X177800000Y-83478200D02*
G01*
X175000000Y-83478200D01*
X175000000Y-82928200D01*
X177800000Y-82928200D01*
X177800000Y-83478200D01*
G37*
%TO.C,D2*%
X157900000Y-63100000D02*
X157350000Y-63100000D01*
X157350000Y-60300000D01*
X157900000Y-60300000D01*
X157900000Y-63100000D01*
G36*
X157900000Y-63100000D02*
G01*
X157350000Y-63100000D01*
X157350000Y-60300000D01*
X157900000Y-60300000D01*
X157900000Y-63100000D01*
G37*
X157000000Y-63100000D02*
X156000000Y-63100000D01*
X156000000Y-60300000D01*
X157000000Y-60300000D01*
X157000000Y-63100000D01*
G36*
X157000000Y-63100000D02*
G01*
X156000000Y-63100000D01*
X156000000Y-60300000D01*
X157000000Y-60300000D01*
X157000000Y-63100000D01*
G37*
X155650000Y-63100000D02*
X155100000Y-63100000D01*
X155100000Y-60300000D01*
X155650000Y-60300000D01*
X155650000Y-63100000D01*
G36*
X155650000Y-63100000D02*
G01*
X155100000Y-63100000D01*
X155100000Y-60300000D01*
X155650000Y-60300000D01*
X155650000Y-63100000D01*
G37*
%TO.C,D7*%
X143640000Y-95599000D02*
X140840000Y-95599000D01*
X140840000Y-95049000D01*
X143640000Y-95049000D01*
X143640000Y-95599000D01*
G36*
X143640000Y-95599000D02*
G01*
X140840000Y-95599000D01*
X140840000Y-95049000D01*
X143640000Y-95049000D01*
X143640000Y-95599000D01*
G37*
X143640000Y-96949000D02*
X140840000Y-96949000D01*
X140840000Y-95949000D01*
X143640000Y-95949000D01*
X143640000Y-96949000D01*
G36*
X143640000Y-96949000D02*
G01*
X140840000Y-96949000D01*
X140840000Y-95949000D01*
X143640000Y-95949000D01*
X143640000Y-96949000D01*
G37*
X143640000Y-97849000D02*
X140840000Y-97849000D01*
X140840000Y-97299000D01*
X143640000Y-97299000D01*
X143640000Y-97849000D01*
G36*
X143640000Y-97849000D02*
G01*
X140840000Y-97849000D01*
X140840000Y-97299000D01*
X143640000Y-97299000D01*
X143640000Y-97849000D01*
G37*
%TO.C,D3*%
X172300000Y-66828200D02*
X169500000Y-66828200D01*
X169500000Y-66278200D01*
X172300000Y-66278200D01*
X172300000Y-66828200D01*
G36*
X172300000Y-66828200D02*
G01*
X169500000Y-66828200D01*
X169500000Y-66278200D01*
X172300000Y-66278200D01*
X172300000Y-66828200D01*
G37*
X172300000Y-68178200D02*
X169500000Y-68178200D01*
X169500000Y-67178200D01*
X172300000Y-67178200D01*
X172300000Y-68178200D01*
G36*
X172300000Y-68178200D02*
G01*
X169500000Y-68178200D01*
X169500000Y-67178200D01*
X172300000Y-67178200D01*
X172300000Y-68178200D01*
G37*
X172300000Y-69078200D02*
X169500000Y-69078200D01*
X169500000Y-68528200D01*
X172300000Y-68528200D01*
X172300000Y-69078200D01*
G36*
X172300000Y-69078200D02*
G01*
X169500000Y-69078200D01*
X169500000Y-68528200D01*
X172300000Y-68528200D01*
X172300000Y-69078200D01*
G37*
%TO.C,D1*%
X143460200Y-69442800D02*
X142910200Y-69442800D01*
X142910200Y-66642800D01*
X143460200Y-66642800D01*
X143460200Y-69442800D01*
G36*
X143460200Y-69442800D02*
G01*
X142910200Y-69442800D01*
X142910200Y-66642800D01*
X143460200Y-66642800D01*
X143460200Y-69442800D01*
G37*
X142560200Y-69442800D02*
X141560200Y-69442800D01*
X141560200Y-66642800D01*
X142560200Y-66642800D01*
X142560200Y-69442800D01*
G36*
X142560200Y-69442800D02*
G01*
X141560200Y-69442800D01*
X141560200Y-66642800D01*
X142560200Y-66642800D01*
X142560200Y-69442800D01*
G37*
X141210200Y-69442800D02*
X140660200Y-69442800D01*
X140660200Y-66642800D01*
X141210200Y-66642800D01*
X141210200Y-69442800D01*
G36*
X141210200Y-69442800D02*
G01*
X140660200Y-69442800D01*
X140660200Y-66642800D01*
X141210200Y-66642800D01*
X141210200Y-69442800D01*
G37*
%TO.C,D6*%
X155656400Y-103137500D02*
X155106400Y-103137500D01*
X155106400Y-100337500D01*
X155656400Y-100337500D01*
X155656400Y-103137500D01*
G36*
X155656400Y-103137500D02*
G01*
X155106400Y-103137500D01*
X155106400Y-100337500D01*
X155656400Y-100337500D01*
X155656400Y-103137500D01*
G37*
X157006400Y-103137500D02*
X156006400Y-103137500D01*
X156006400Y-100337500D01*
X157006400Y-100337500D01*
X157006400Y-103137500D01*
G36*
X157006400Y-103137500D02*
G01*
X156006400Y-103137500D01*
X156006400Y-100337500D01*
X157006400Y-100337500D01*
X157006400Y-103137500D01*
G37*
X157906400Y-103137500D02*
X157356400Y-103137500D01*
X157356400Y-100337500D01*
X157906400Y-100337500D01*
X157906400Y-103137500D01*
G36*
X157906400Y-103137500D02*
G01*
X157356400Y-103137500D01*
X157356400Y-100337500D01*
X157906400Y-100337500D01*
X157906400Y-103137500D01*
G37*
%TO.C,D5*%
X169828200Y-97600000D02*
X169278200Y-97600000D01*
X169278200Y-94800000D01*
X169828200Y-94800000D01*
X169828200Y-97600000D01*
G36*
X169828200Y-97600000D02*
G01*
X169278200Y-97600000D01*
X169278200Y-94800000D01*
X169828200Y-94800000D01*
X169828200Y-97600000D01*
G37*
X171178200Y-97600000D02*
X170178200Y-97600000D01*
X170178200Y-94800000D01*
X171178200Y-94800000D01*
X171178200Y-97600000D01*
G36*
X171178200Y-97600000D02*
G01*
X170178200Y-97600000D01*
X170178200Y-94800000D01*
X171178200Y-94800000D01*
X171178200Y-97600000D01*
G37*
X172078200Y-97600000D02*
X171528200Y-97600000D01*
X171528200Y-94800000D01*
X172078200Y-94800000D01*
X172078200Y-97600000D01*
G36*
X172078200Y-97600000D02*
G01*
X171528200Y-97600000D01*
X171528200Y-94800000D01*
X172078200Y-94800000D01*
X172078200Y-97600000D01*
G37*
%TO.C,D8*%
X137544000Y-81028200D02*
X134744000Y-81028200D01*
X134744000Y-80478200D01*
X137544000Y-80478200D01*
X137544000Y-81028200D01*
G36*
X137544000Y-81028200D02*
G01*
X134744000Y-81028200D01*
X134744000Y-80478200D01*
X137544000Y-80478200D01*
X137544000Y-81028200D01*
G37*
X137544000Y-82378200D02*
X134744000Y-82378200D01*
X134744000Y-81378200D01*
X137544000Y-81378200D01*
X137544000Y-82378200D01*
G36*
X137544000Y-82378200D02*
G01*
X134744000Y-82378200D01*
X134744000Y-81378200D01*
X137544000Y-81378200D01*
X137544000Y-82378200D01*
G37*
X137544000Y-83278200D02*
X134744000Y-83278200D01*
X134744000Y-82728200D01*
X137544000Y-82728200D01*
X137544000Y-83278200D01*
G36*
X137544000Y-83278200D02*
G01*
X134744000Y-83278200D01*
X134744000Y-82728200D01*
X137544000Y-82728200D01*
X137544000Y-83278200D01*
G37*
%TD*%
D11*
%TO.C,D13*%
X149450000Y-100800000D03*
X150364400Y-100800000D03*
%TD*%
D12*
%TO.C,D17*%
X147500000Y-69000000D03*
X147500000Y-68085600D03*
%TD*%
D13*
%TO.C,C1*%
X105134500Y-82042000D03*
X107209500Y-82042000D03*
%TD*%
D14*
%TO.C,D12*%
X168214400Y-102000000D03*
X167300000Y-102000000D03*
%TD*%
D11*
%TO.C,D14*%
X136385600Y-94200000D03*
X137300000Y-94200000D03*
%TD*%
D15*
%TO.C,U1*%
X112092500Y-60274500D03*
X108760500Y-62687500D03*
X112092500Y-65354500D03*
X108760500Y-67767500D03*
X112092500Y-70434500D03*
X108760500Y-72847500D03*
X112092500Y-75514500D03*
%TD*%
D16*
%TO.C,RV1*%
X124519700Y-83789651D03*
D17*
X122012700Y-82789650D03*
D16*
X124519700Y-81789649D03*
%TD*%
D14*
%TO.C,D15*%
X134014400Y-88100000D03*
X133100000Y-88100000D03*
%TD*%
D18*
%TO.C,U4*%
X109656000Y-92290000D03*
D19*
X105156000Y-92290000D03*
D20*
X105156000Y-86790000D03*
X111356000Y-86790000D03*
X105156000Y-97790000D03*
X111356000Y-97790000D03*
%TD*%
D21*
%TO.C,U2*%
X125476000Y-89790000D03*
X122936000Y-93090000D03*
%TD*%
D11*
%TO.C,D10*%
X171000000Y-71600000D03*
X171914400Y-71600000D03*
%TD*%
D12*
%TO.C,D9*%
X161600000Y-62600000D03*
X161600000Y-61685600D03*
%TD*%
D22*
%TO.C,C2*%
X133096000Y-58652500D03*
X133096000Y-60727500D03*
%TD*%
D11*
%TO.C,D11*%
X175260000Y-87122000D03*
X176174400Y-87122000D03*
%TD*%
D23*
%TO.C,R1*%
X125460000Y-86360000D03*
X123460000Y-86360000D03*
%TD*%
D24*
%TO.C,Q2*%
X118364000Y-83820000D03*
X116464000Y-83820000D03*
X117414000Y-81800000D03*
%TD*%
M02*
