%TF.GenerationSoftware,KiCad,Pcbnew,7.0.9*%
%TF.CreationDate,2024-01-18T23:32:07-06:00*%
%TF.ProjectId,cv_lighting_pcb,63765f6c-6967-4687-9469-6e675f706362,rev?*%
%TF.SameCoordinates,Original*%
%TF.FileFunction,Drillmap*%
%TF.FilePolarity,Positive*%
%FSLAX45Y45*%
G04 Gerber Fmt 4.5, Leading zero omitted, Abs format (unit mm)*
G04 Created by KiCad (PCBNEW 7.0.9) date 2024-01-18 23:32:07*
%MOMM*%
%LPD*%
G01*
G04 APERTURE LIST*
%ADD10C,0.100000*%
%ADD11C,0.200000*%
%ADD12C,0.160000*%
%ADD13C,0.180000*%
G04 APERTURE END LIST*
D10*
X18034000Y-10668000D02*
G75*
G03*
X18034000Y-10668000I-254000J0D01*
G01*
X17650496Y-7522835D02*
G75*
G03*
X17650496Y-7522835I-140000J0D01*
G01*
X9906000Y-10668000D02*
G75*
G03*
X10414000Y-11176000I508000J0D01*
G01*
X16758920Y-8199120D02*
G75*
G03*
X16758920Y-8199120I0J0D01*
G01*
X13929503Y-8877165D02*
G75*
G03*
X13929503Y-8877165I-140000J0D01*
G01*
X18288000Y-5588000D02*
X18288000Y-10668000D01*
X18034000Y-5588000D02*
G75*
G03*
X18034000Y-5588000I-254000J0D01*
G01*
X15112834Y-6339503D02*
G75*
G03*
X15112834Y-6339503I-140000J0D01*
G01*
X10668000Y-10668000D02*
G75*
G03*
X10668000Y-10668000I-254000J0D01*
G01*
X18288000Y-5588000D02*
G75*
G03*
X17780000Y-5080000I-508000J0D01*
G01*
X10414000Y-5080000D02*
X17780000Y-5080000D01*
X9906000Y-10668000D02*
X9906000Y-5588000D01*
X17780000Y-11176000D02*
X10414000Y-11176000D01*
X10668000Y-5588000D02*
G75*
G03*
X10668000Y-5588000I-254000J0D01*
G01*
X17780000Y-11176000D02*
G75*
G03*
X18288000Y-10668000I0J508000D01*
G01*
X16606105Y-8199120D02*
G75*
G03*
X16606105Y-8199120I-1000001J0D01*
G01*
X12928600Y-10058400D02*
G75*
G03*
X12928600Y-10058400I-508348J0D01*
G01*
X16467165Y-10060497D02*
G75*
G03*
X16467165Y-10060497I-140000J0D01*
G01*
X10414000Y-5080000D02*
G75*
G03*
X9906000Y-5588000I0J-508000D01*
G01*
D11*
D12*
X10435600Y-9149000D02*
X10595600Y-9309000D01*
X10595600Y-9149000D02*
X10435600Y-9309000D01*
D13*
X11055600Y-9229000D02*
G75*
G03*
X11055600Y-9229000I-90000J0D01*
G01*
D11*
X10161777Y-11492484D02*
X10161777Y-11292484D01*
X10161777Y-11292484D02*
X10209396Y-11292484D01*
X10209396Y-11292484D02*
X10237967Y-11302008D01*
X10237967Y-11302008D02*
X10257015Y-11321055D01*
X10257015Y-11321055D02*
X10266539Y-11340103D01*
X10266539Y-11340103D02*
X10276063Y-11378198D01*
X10276063Y-11378198D02*
X10276063Y-11406769D01*
X10276063Y-11406769D02*
X10266539Y-11444865D01*
X10266539Y-11444865D02*
X10257015Y-11463912D01*
X10257015Y-11463912D02*
X10237967Y-11482960D01*
X10237967Y-11482960D02*
X10209396Y-11492484D01*
X10209396Y-11492484D02*
X10161777Y-11492484D01*
X10361777Y-11492484D02*
X10361777Y-11359150D01*
X10361777Y-11397246D02*
X10371301Y-11378198D01*
X10371301Y-11378198D02*
X10380824Y-11368674D01*
X10380824Y-11368674D02*
X10399872Y-11359150D01*
X10399872Y-11359150D02*
X10418920Y-11359150D01*
X10485586Y-11492484D02*
X10485586Y-11359150D01*
X10485586Y-11292484D02*
X10476063Y-11302008D01*
X10476063Y-11302008D02*
X10485586Y-11311531D01*
X10485586Y-11311531D02*
X10495110Y-11302008D01*
X10495110Y-11302008D02*
X10485586Y-11292484D01*
X10485586Y-11292484D02*
X10485586Y-11311531D01*
X10609396Y-11492484D02*
X10590348Y-11482960D01*
X10590348Y-11482960D02*
X10580824Y-11463912D01*
X10580824Y-11463912D02*
X10580824Y-11292484D01*
X10714158Y-11492484D02*
X10695110Y-11482960D01*
X10695110Y-11482960D02*
X10685586Y-11463912D01*
X10685586Y-11463912D02*
X10685586Y-11292484D01*
X10942729Y-11492484D02*
X10942729Y-11292484D01*
X10942729Y-11292484D02*
X11009396Y-11435341D01*
X11009396Y-11435341D02*
X11076063Y-11292484D01*
X11076063Y-11292484D02*
X11076063Y-11492484D01*
X11257015Y-11492484D02*
X11257015Y-11387722D01*
X11257015Y-11387722D02*
X11247491Y-11368674D01*
X11247491Y-11368674D02*
X11228443Y-11359150D01*
X11228443Y-11359150D02*
X11190348Y-11359150D01*
X11190348Y-11359150D02*
X11171301Y-11368674D01*
X11257015Y-11482960D02*
X11237967Y-11492484D01*
X11237967Y-11492484D02*
X11190348Y-11492484D01*
X11190348Y-11492484D02*
X11171301Y-11482960D01*
X11171301Y-11482960D02*
X11161777Y-11463912D01*
X11161777Y-11463912D02*
X11161777Y-11444865D01*
X11161777Y-11444865D02*
X11171301Y-11425817D01*
X11171301Y-11425817D02*
X11190348Y-11416293D01*
X11190348Y-11416293D02*
X11237967Y-11416293D01*
X11237967Y-11416293D02*
X11257015Y-11406769D01*
X11352253Y-11359150D02*
X11352253Y-11559150D01*
X11352253Y-11368674D02*
X11371301Y-11359150D01*
X11371301Y-11359150D02*
X11409396Y-11359150D01*
X11409396Y-11359150D02*
X11428443Y-11368674D01*
X11428443Y-11368674D02*
X11437967Y-11378198D01*
X11437967Y-11378198D02*
X11447491Y-11397246D01*
X11447491Y-11397246D02*
X11447491Y-11454388D01*
X11447491Y-11454388D02*
X11437967Y-11473436D01*
X11437967Y-11473436D02*
X11428443Y-11482960D01*
X11428443Y-11482960D02*
X11409396Y-11492484D01*
X11409396Y-11492484D02*
X11371301Y-11492484D01*
X11371301Y-11492484D02*
X11352253Y-11482960D01*
X11533205Y-11473436D02*
X11542729Y-11482960D01*
X11542729Y-11482960D02*
X11533205Y-11492484D01*
X11533205Y-11492484D02*
X11523682Y-11482960D01*
X11523682Y-11482960D02*
X11533205Y-11473436D01*
X11533205Y-11473436D02*
X11533205Y-11492484D01*
X11533205Y-11368674D02*
X11542729Y-11378198D01*
X11542729Y-11378198D02*
X11533205Y-11387722D01*
X11533205Y-11387722D02*
X11523682Y-11378198D01*
X11523682Y-11378198D02*
X11533205Y-11368674D01*
X11533205Y-11368674D02*
X11533205Y-11387722D01*
D12*
X9741000Y-11741000D02*
X9901000Y-11901000D01*
X9901000Y-11741000D02*
X9741000Y-11901000D01*
D11*
X10266539Y-11912484D02*
X10152253Y-11912484D01*
X10209396Y-11912484D02*
X10209396Y-11712484D01*
X10209396Y-11712484D02*
X10190348Y-11741055D01*
X10190348Y-11741055D02*
X10171301Y-11760103D01*
X10171301Y-11760103D02*
X10152253Y-11769627D01*
X10352253Y-11893436D02*
X10361777Y-11902960D01*
X10361777Y-11902960D02*
X10352253Y-11912484D01*
X10352253Y-11912484D02*
X10342729Y-11902960D01*
X10342729Y-11902960D02*
X10352253Y-11893436D01*
X10352253Y-11893436D02*
X10352253Y-11912484D01*
X10533205Y-11712484D02*
X10495110Y-11712484D01*
X10495110Y-11712484D02*
X10476063Y-11722008D01*
X10476063Y-11722008D02*
X10466539Y-11731531D01*
X10466539Y-11731531D02*
X10447491Y-11760103D01*
X10447491Y-11760103D02*
X10437967Y-11798198D01*
X10437967Y-11798198D02*
X10437967Y-11874388D01*
X10437967Y-11874388D02*
X10447491Y-11893436D01*
X10447491Y-11893436D02*
X10457015Y-11902960D01*
X10457015Y-11902960D02*
X10476063Y-11912484D01*
X10476063Y-11912484D02*
X10514158Y-11912484D01*
X10514158Y-11912484D02*
X10533205Y-11902960D01*
X10533205Y-11902960D02*
X10542729Y-11893436D01*
X10542729Y-11893436D02*
X10552253Y-11874388D01*
X10552253Y-11874388D02*
X10552253Y-11826769D01*
X10552253Y-11826769D02*
X10542729Y-11807722D01*
X10542729Y-11807722D02*
X10533205Y-11798198D01*
X10533205Y-11798198D02*
X10514158Y-11788674D01*
X10514158Y-11788674D02*
X10476063Y-11788674D01*
X10476063Y-11788674D02*
X10457015Y-11798198D01*
X10457015Y-11798198D02*
X10447491Y-11807722D01*
X10447491Y-11807722D02*
X10437967Y-11826769D01*
X10676063Y-11712484D02*
X10695110Y-11712484D01*
X10695110Y-11712484D02*
X10714158Y-11722008D01*
X10714158Y-11722008D02*
X10723682Y-11731531D01*
X10723682Y-11731531D02*
X10733205Y-11750579D01*
X10733205Y-11750579D02*
X10742729Y-11788674D01*
X10742729Y-11788674D02*
X10742729Y-11836293D01*
X10742729Y-11836293D02*
X10733205Y-11874388D01*
X10733205Y-11874388D02*
X10723682Y-11893436D01*
X10723682Y-11893436D02*
X10714158Y-11902960D01*
X10714158Y-11902960D02*
X10695110Y-11912484D01*
X10695110Y-11912484D02*
X10676063Y-11912484D01*
X10676063Y-11912484D02*
X10657015Y-11902960D01*
X10657015Y-11902960D02*
X10647491Y-11893436D01*
X10647491Y-11893436D02*
X10637967Y-11874388D01*
X10637967Y-11874388D02*
X10628444Y-11836293D01*
X10628444Y-11836293D02*
X10628444Y-11788674D01*
X10628444Y-11788674D02*
X10637967Y-11750579D01*
X10637967Y-11750579D02*
X10647491Y-11731531D01*
X10647491Y-11731531D02*
X10657015Y-11722008D01*
X10657015Y-11722008D02*
X10676063Y-11712484D01*
X10866539Y-11712484D02*
X10885586Y-11712484D01*
X10885586Y-11712484D02*
X10904634Y-11722008D01*
X10904634Y-11722008D02*
X10914158Y-11731531D01*
X10914158Y-11731531D02*
X10923682Y-11750579D01*
X10923682Y-11750579D02*
X10933205Y-11788674D01*
X10933205Y-11788674D02*
X10933205Y-11836293D01*
X10933205Y-11836293D02*
X10923682Y-11874388D01*
X10923682Y-11874388D02*
X10914158Y-11893436D01*
X10914158Y-11893436D02*
X10904634Y-11902960D01*
X10904634Y-11902960D02*
X10885586Y-11912484D01*
X10885586Y-11912484D02*
X10866539Y-11912484D01*
X10866539Y-11912484D02*
X10847491Y-11902960D01*
X10847491Y-11902960D02*
X10837967Y-11893436D01*
X10837967Y-11893436D02*
X10828444Y-11874388D01*
X10828444Y-11874388D02*
X10818920Y-11836293D01*
X10818920Y-11836293D02*
X10818920Y-11788674D01*
X10818920Y-11788674D02*
X10828444Y-11750579D01*
X10828444Y-11750579D02*
X10837967Y-11731531D01*
X10837967Y-11731531D02*
X10847491Y-11722008D01*
X10847491Y-11722008D02*
X10866539Y-11712484D01*
X11018920Y-11912484D02*
X11018920Y-11779150D01*
X11018920Y-11798198D02*
X11028444Y-11788674D01*
X11028444Y-11788674D02*
X11047491Y-11779150D01*
X11047491Y-11779150D02*
X11076063Y-11779150D01*
X11076063Y-11779150D02*
X11095110Y-11788674D01*
X11095110Y-11788674D02*
X11104634Y-11807722D01*
X11104634Y-11807722D02*
X11104634Y-11912484D01*
X11104634Y-11807722D02*
X11114158Y-11788674D01*
X11114158Y-11788674D02*
X11133205Y-11779150D01*
X11133205Y-11779150D02*
X11161777Y-11779150D01*
X11161777Y-11779150D02*
X11180825Y-11788674D01*
X11180825Y-11788674D02*
X11190348Y-11807722D01*
X11190348Y-11807722D02*
X11190348Y-11912484D01*
X11285586Y-11912484D02*
X11285586Y-11779150D01*
X11285586Y-11798198D02*
X11295110Y-11788674D01*
X11295110Y-11788674D02*
X11314158Y-11779150D01*
X11314158Y-11779150D02*
X11342729Y-11779150D01*
X11342729Y-11779150D02*
X11361777Y-11788674D01*
X11361777Y-11788674D02*
X11371301Y-11807722D01*
X11371301Y-11807722D02*
X11371301Y-11912484D01*
X11371301Y-11807722D02*
X11380824Y-11788674D01*
X11380824Y-11788674D02*
X11399872Y-11779150D01*
X11399872Y-11779150D02*
X11428443Y-11779150D01*
X11428443Y-11779150D02*
X11447491Y-11788674D01*
X11447491Y-11788674D02*
X11457015Y-11807722D01*
X11457015Y-11807722D02*
X11457015Y-11912484D01*
X11847491Y-11702960D02*
X11676063Y-11960103D01*
X12104634Y-11712484D02*
X12123682Y-11712484D01*
X12123682Y-11712484D02*
X12142729Y-11722008D01*
X12142729Y-11722008D02*
X12152253Y-11731531D01*
X12152253Y-11731531D02*
X12161777Y-11750579D01*
X12161777Y-11750579D02*
X12171301Y-11788674D01*
X12171301Y-11788674D02*
X12171301Y-11836293D01*
X12171301Y-11836293D02*
X12161777Y-11874388D01*
X12161777Y-11874388D02*
X12152253Y-11893436D01*
X12152253Y-11893436D02*
X12142729Y-11902960D01*
X12142729Y-11902960D02*
X12123682Y-11912484D01*
X12123682Y-11912484D02*
X12104634Y-11912484D01*
X12104634Y-11912484D02*
X12085586Y-11902960D01*
X12085586Y-11902960D02*
X12076063Y-11893436D01*
X12076063Y-11893436D02*
X12066539Y-11874388D01*
X12066539Y-11874388D02*
X12057015Y-11836293D01*
X12057015Y-11836293D02*
X12057015Y-11788674D01*
X12057015Y-11788674D02*
X12066539Y-11750579D01*
X12066539Y-11750579D02*
X12076063Y-11731531D01*
X12076063Y-11731531D02*
X12085586Y-11722008D01*
X12085586Y-11722008D02*
X12104634Y-11712484D01*
X12257015Y-11893436D02*
X12266539Y-11902960D01*
X12266539Y-11902960D02*
X12257015Y-11912484D01*
X12257015Y-11912484D02*
X12247491Y-11902960D01*
X12247491Y-11902960D02*
X12257015Y-11893436D01*
X12257015Y-11893436D02*
X12257015Y-11912484D01*
X12390348Y-11712484D02*
X12409396Y-11712484D01*
X12409396Y-11712484D02*
X12428444Y-11722008D01*
X12428444Y-11722008D02*
X12437967Y-11731531D01*
X12437967Y-11731531D02*
X12447491Y-11750579D01*
X12447491Y-11750579D02*
X12457015Y-11788674D01*
X12457015Y-11788674D02*
X12457015Y-11836293D01*
X12457015Y-11836293D02*
X12447491Y-11874388D01*
X12447491Y-11874388D02*
X12437967Y-11893436D01*
X12437967Y-11893436D02*
X12428444Y-11902960D01*
X12428444Y-11902960D02*
X12409396Y-11912484D01*
X12409396Y-11912484D02*
X12390348Y-11912484D01*
X12390348Y-11912484D02*
X12371301Y-11902960D01*
X12371301Y-11902960D02*
X12361777Y-11893436D01*
X12361777Y-11893436D02*
X12352253Y-11874388D01*
X12352253Y-11874388D02*
X12342729Y-11836293D01*
X12342729Y-11836293D02*
X12342729Y-11788674D01*
X12342729Y-11788674D02*
X12352253Y-11750579D01*
X12352253Y-11750579D02*
X12361777Y-11731531D01*
X12361777Y-11731531D02*
X12371301Y-11722008D01*
X12371301Y-11722008D02*
X12390348Y-11712484D01*
X12628444Y-11712484D02*
X12590348Y-11712484D01*
X12590348Y-11712484D02*
X12571301Y-11722008D01*
X12571301Y-11722008D02*
X12561777Y-11731531D01*
X12561777Y-11731531D02*
X12542729Y-11760103D01*
X12542729Y-11760103D02*
X12533206Y-11798198D01*
X12533206Y-11798198D02*
X12533206Y-11874388D01*
X12533206Y-11874388D02*
X12542729Y-11893436D01*
X12542729Y-11893436D02*
X12552253Y-11902960D01*
X12552253Y-11902960D02*
X12571301Y-11912484D01*
X12571301Y-11912484D02*
X12609396Y-11912484D01*
X12609396Y-11912484D02*
X12628444Y-11902960D01*
X12628444Y-11902960D02*
X12637967Y-11893436D01*
X12637967Y-11893436D02*
X12647491Y-11874388D01*
X12647491Y-11874388D02*
X12647491Y-11826769D01*
X12647491Y-11826769D02*
X12637967Y-11807722D01*
X12637967Y-11807722D02*
X12628444Y-11798198D01*
X12628444Y-11798198D02*
X12609396Y-11788674D01*
X12609396Y-11788674D02*
X12571301Y-11788674D01*
X12571301Y-11788674D02*
X12552253Y-11798198D01*
X12552253Y-11798198D02*
X12542729Y-11807722D01*
X12542729Y-11807722D02*
X12533206Y-11826769D01*
X12714158Y-11712484D02*
X12837967Y-11712484D01*
X12837967Y-11712484D02*
X12771301Y-11788674D01*
X12771301Y-11788674D02*
X12799872Y-11788674D01*
X12799872Y-11788674D02*
X12818920Y-11798198D01*
X12818920Y-11798198D02*
X12828444Y-11807722D01*
X12828444Y-11807722D02*
X12837967Y-11826769D01*
X12837967Y-11826769D02*
X12837967Y-11874388D01*
X12837967Y-11874388D02*
X12828444Y-11893436D01*
X12828444Y-11893436D02*
X12818920Y-11902960D01*
X12818920Y-11902960D02*
X12799872Y-11912484D01*
X12799872Y-11912484D02*
X12742729Y-11912484D01*
X12742729Y-11912484D02*
X12723682Y-11902960D01*
X12723682Y-11902960D02*
X12714158Y-11893436D01*
X12961777Y-11712484D02*
X12980825Y-11712484D01*
X12980825Y-11712484D02*
X12999872Y-11722008D01*
X12999872Y-11722008D02*
X13009396Y-11731531D01*
X13009396Y-11731531D02*
X13018920Y-11750579D01*
X13018920Y-11750579D02*
X13028444Y-11788674D01*
X13028444Y-11788674D02*
X13028444Y-11836293D01*
X13028444Y-11836293D02*
X13018920Y-11874388D01*
X13018920Y-11874388D02*
X13009396Y-11893436D01*
X13009396Y-11893436D02*
X12999872Y-11902960D01*
X12999872Y-11902960D02*
X12980825Y-11912484D01*
X12980825Y-11912484D02*
X12961777Y-11912484D01*
X12961777Y-11912484D02*
X12942729Y-11902960D01*
X12942729Y-11902960D02*
X12933206Y-11893436D01*
X12933206Y-11893436D02*
X12923682Y-11874388D01*
X12923682Y-11874388D02*
X12914158Y-11836293D01*
X12914158Y-11836293D02*
X12914158Y-11788674D01*
X12914158Y-11788674D02*
X12923682Y-11750579D01*
X12923682Y-11750579D02*
X12933206Y-11731531D01*
X12933206Y-11731531D02*
X12942729Y-11722008D01*
X12942729Y-11722008D02*
X12961777Y-11712484D01*
X13104634Y-11712484D02*
X13104634Y-11750579D01*
X13180825Y-11712484D02*
X13180825Y-11750579D01*
X13476063Y-11988674D02*
X13466539Y-11979150D01*
X13466539Y-11979150D02*
X13447491Y-11950579D01*
X13447491Y-11950579D02*
X13437968Y-11931531D01*
X13437968Y-11931531D02*
X13428444Y-11902960D01*
X13428444Y-11902960D02*
X13418920Y-11855341D01*
X13418920Y-11855341D02*
X13418920Y-11817246D01*
X13418920Y-11817246D02*
X13428444Y-11769627D01*
X13428444Y-11769627D02*
X13437968Y-11741055D01*
X13437968Y-11741055D02*
X13447491Y-11722008D01*
X13447491Y-11722008D02*
X13466539Y-11693436D01*
X13466539Y-11693436D02*
X13476063Y-11683912D01*
X13657015Y-11912484D02*
X13542729Y-11912484D01*
X13599872Y-11912484D02*
X13599872Y-11712484D01*
X13599872Y-11712484D02*
X13580825Y-11741055D01*
X13580825Y-11741055D02*
X13561777Y-11760103D01*
X13561777Y-11760103D02*
X13542729Y-11769627D01*
X13895110Y-11912484D02*
X13895110Y-11712484D01*
X13980825Y-11912484D02*
X13980825Y-11807722D01*
X13980825Y-11807722D02*
X13971301Y-11788674D01*
X13971301Y-11788674D02*
X13952253Y-11779150D01*
X13952253Y-11779150D02*
X13923682Y-11779150D01*
X13923682Y-11779150D02*
X13904634Y-11788674D01*
X13904634Y-11788674D02*
X13895110Y-11798198D01*
X14104634Y-11912484D02*
X14085587Y-11902960D01*
X14085587Y-11902960D02*
X14076063Y-11893436D01*
X14076063Y-11893436D02*
X14066539Y-11874388D01*
X14066539Y-11874388D02*
X14066539Y-11817246D01*
X14066539Y-11817246D02*
X14076063Y-11798198D01*
X14076063Y-11798198D02*
X14085587Y-11788674D01*
X14085587Y-11788674D02*
X14104634Y-11779150D01*
X14104634Y-11779150D02*
X14133206Y-11779150D01*
X14133206Y-11779150D02*
X14152253Y-11788674D01*
X14152253Y-11788674D02*
X14161777Y-11798198D01*
X14161777Y-11798198D02*
X14171301Y-11817246D01*
X14171301Y-11817246D02*
X14171301Y-11874388D01*
X14171301Y-11874388D02*
X14161777Y-11893436D01*
X14161777Y-11893436D02*
X14152253Y-11902960D01*
X14152253Y-11902960D02*
X14133206Y-11912484D01*
X14133206Y-11912484D02*
X14104634Y-11912484D01*
X14285587Y-11912484D02*
X14266539Y-11902960D01*
X14266539Y-11902960D02*
X14257015Y-11883912D01*
X14257015Y-11883912D02*
X14257015Y-11712484D01*
X14437968Y-11902960D02*
X14418920Y-11912484D01*
X14418920Y-11912484D02*
X14380825Y-11912484D01*
X14380825Y-11912484D02*
X14361777Y-11902960D01*
X14361777Y-11902960D02*
X14352253Y-11883912D01*
X14352253Y-11883912D02*
X14352253Y-11807722D01*
X14352253Y-11807722D02*
X14361777Y-11788674D01*
X14361777Y-11788674D02*
X14380825Y-11779150D01*
X14380825Y-11779150D02*
X14418920Y-11779150D01*
X14418920Y-11779150D02*
X14437968Y-11788674D01*
X14437968Y-11788674D02*
X14447491Y-11807722D01*
X14447491Y-11807722D02*
X14447491Y-11826769D01*
X14447491Y-11826769D02*
X14352253Y-11845817D01*
X14514158Y-11988674D02*
X14523682Y-11979150D01*
X14523682Y-11979150D02*
X14542730Y-11950579D01*
X14542730Y-11950579D02*
X14552253Y-11931531D01*
X14552253Y-11931531D02*
X14561777Y-11902960D01*
X14561777Y-11902960D02*
X14571301Y-11855341D01*
X14571301Y-11855341D02*
X14571301Y-11817246D01*
X14571301Y-11817246D02*
X14561777Y-11769627D01*
X14561777Y-11769627D02*
X14552253Y-11741055D01*
X14552253Y-11741055D02*
X14542730Y-11722008D01*
X14542730Y-11722008D02*
X14523682Y-11693436D01*
X14523682Y-11693436D02*
X14514158Y-11683912D01*
X14876063Y-11988674D02*
X14866539Y-11979150D01*
X14866539Y-11979150D02*
X14847491Y-11950579D01*
X14847491Y-11950579D02*
X14837968Y-11931531D01*
X14837968Y-11931531D02*
X14828444Y-11902960D01*
X14828444Y-11902960D02*
X14818920Y-11855341D01*
X14818920Y-11855341D02*
X14818920Y-11817246D01*
X14818920Y-11817246D02*
X14828444Y-11769627D01*
X14828444Y-11769627D02*
X14837968Y-11741055D01*
X14837968Y-11741055D02*
X14847491Y-11722008D01*
X14847491Y-11722008D02*
X14866539Y-11693436D01*
X14866539Y-11693436D02*
X14876063Y-11683912D01*
X14952253Y-11779150D02*
X14952253Y-11912484D01*
X14952253Y-11798198D02*
X14961777Y-11788674D01*
X14961777Y-11788674D02*
X14980825Y-11779150D01*
X14980825Y-11779150D02*
X15009396Y-11779150D01*
X15009396Y-11779150D02*
X15028444Y-11788674D01*
X15028444Y-11788674D02*
X15037968Y-11807722D01*
X15037968Y-11807722D02*
X15037968Y-11912484D01*
X15161777Y-11912484D02*
X15142730Y-11902960D01*
X15142730Y-11902960D02*
X15133206Y-11893436D01*
X15133206Y-11893436D02*
X15123682Y-11874388D01*
X15123682Y-11874388D02*
X15123682Y-11817246D01*
X15123682Y-11817246D02*
X15133206Y-11798198D01*
X15133206Y-11798198D02*
X15142730Y-11788674D01*
X15142730Y-11788674D02*
X15161777Y-11779150D01*
X15161777Y-11779150D02*
X15190349Y-11779150D01*
X15190349Y-11779150D02*
X15209396Y-11788674D01*
X15209396Y-11788674D02*
X15218920Y-11798198D01*
X15218920Y-11798198D02*
X15228444Y-11817246D01*
X15228444Y-11817246D02*
X15228444Y-11874388D01*
X15228444Y-11874388D02*
X15218920Y-11893436D01*
X15218920Y-11893436D02*
X15209396Y-11902960D01*
X15209396Y-11902960D02*
X15190349Y-11912484D01*
X15190349Y-11912484D02*
X15161777Y-11912484D01*
X15285587Y-11779150D02*
X15361777Y-11779150D01*
X15314158Y-11712484D02*
X15314158Y-11883912D01*
X15314158Y-11883912D02*
X15323682Y-11902960D01*
X15323682Y-11902960D02*
X15342730Y-11912484D01*
X15342730Y-11912484D02*
X15361777Y-11912484D01*
X15580825Y-11779150D02*
X15580825Y-11979150D01*
X15580825Y-11788674D02*
X15599872Y-11779150D01*
X15599872Y-11779150D02*
X15637968Y-11779150D01*
X15637968Y-11779150D02*
X15657015Y-11788674D01*
X15657015Y-11788674D02*
X15666539Y-11798198D01*
X15666539Y-11798198D02*
X15676063Y-11817246D01*
X15676063Y-11817246D02*
X15676063Y-11874388D01*
X15676063Y-11874388D02*
X15666539Y-11893436D01*
X15666539Y-11893436D02*
X15657015Y-11902960D01*
X15657015Y-11902960D02*
X15637968Y-11912484D01*
X15637968Y-11912484D02*
X15599872Y-11912484D01*
X15599872Y-11912484D02*
X15580825Y-11902960D01*
X15790349Y-11912484D02*
X15771301Y-11902960D01*
X15771301Y-11902960D02*
X15761777Y-11883912D01*
X15761777Y-11883912D02*
X15761777Y-11712484D01*
X15952253Y-11912484D02*
X15952253Y-11807722D01*
X15952253Y-11807722D02*
X15942730Y-11788674D01*
X15942730Y-11788674D02*
X15923682Y-11779150D01*
X15923682Y-11779150D02*
X15885587Y-11779150D01*
X15885587Y-11779150D02*
X15866539Y-11788674D01*
X15952253Y-11902960D02*
X15933206Y-11912484D01*
X15933206Y-11912484D02*
X15885587Y-11912484D01*
X15885587Y-11912484D02*
X15866539Y-11902960D01*
X15866539Y-11902960D02*
X15857015Y-11883912D01*
X15857015Y-11883912D02*
X15857015Y-11864865D01*
X15857015Y-11864865D02*
X15866539Y-11845817D01*
X15866539Y-11845817D02*
X15885587Y-11836293D01*
X15885587Y-11836293D02*
X15933206Y-11836293D01*
X15933206Y-11836293D02*
X15952253Y-11826769D01*
X16018920Y-11779150D02*
X16095111Y-11779150D01*
X16047492Y-11712484D02*
X16047492Y-11883912D01*
X16047492Y-11883912D02*
X16057015Y-11902960D01*
X16057015Y-11902960D02*
X16076063Y-11912484D01*
X16076063Y-11912484D02*
X16095111Y-11912484D01*
X16237968Y-11902960D02*
X16218920Y-11912484D01*
X16218920Y-11912484D02*
X16180825Y-11912484D01*
X16180825Y-11912484D02*
X16161777Y-11902960D01*
X16161777Y-11902960D02*
X16152253Y-11883912D01*
X16152253Y-11883912D02*
X16152253Y-11807722D01*
X16152253Y-11807722D02*
X16161777Y-11788674D01*
X16161777Y-11788674D02*
X16180825Y-11779150D01*
X16180825Y-11779150D02*
X16218920Y-11779150D01*
X16218920Y-11779150D02*
X16237968Y-11788674D01*
X16237968Y-11788674D02*
X16247492Y-11807722D01*
X16247492Y-11807722D02*
X16247492Y-11826769D01*
X16247492Y-11826769D02*
X16152253Y-11845817D01*
X16418920Y-11912484D02*
X16418920Y-11712484D01*
X16418920Y-11902960D02*
X16399873Y-11912484D01*
X16399873Y-11912484D02*
X16361777Y-11912484D01*
X16361777Y-11912484D02*
X16342730Y-11902960D01*
X16342730Y-11902960D02*
X16333206Y-11893436D01*
X16333206Y-11893436D02*
X16323682Y-11874388D01*
X16323682Y-11874388D02*
X16323682Y-11817246D01*
X16323682Y-11817246D02*
X16333206Y-11798198D01*
X16333206Y-11798198D02*
X16342730Y-11788674D01*
X16342730Y-11788674D02*
X16361777Y-11779150D01*
X16361777Y-11779150D02*
X16399873Y-11779150D01*
X16399873Y-11779150D02*
X16418920Y-11788674D01*
X16495111Y-11988674D02*
X16504634Y-11979150D01*
X16504634Y-11979150D02*
X16523682Y-11950579D01*
X16523682Y-11950579D02*
X16533206Y-11931531D01*
X16533206Y-11931531D02*
X16542730Y-11902960D01*
X16542730Y-11902960D02*
X16552253Y-11855341D01*
X16552253Y-11855341D02*
X16552253Y-11817246D01*
X16552253Y-11817246D02*
X16542730Y-11769627D01*
X16542730Y-11769627D02*
X16533206Y-11741055D01*
X16533206Y-11741055D02*
X16523682Y-11722008D01*
X16523682Y-11722008D02*
X16504634Y-11693436D01*
X16504634Y-11693436D02*
X16495111Y-11683912D01*
D13*
X9901000Y-12101000D02*
G75*
G03*
X9901000Y-12101000I-90000J0D01*
G01*
D11*
X10266539Y-12192484D02*
X10152253Y-12192484D01*
X10209396Y-12192484D02*
X10209396Y-11992484D01*
X10209396Y-11992484D02*
X10190348Y-12021055D01*
X10190348Y-12021055D02*
X10171301Y-12040103D01*
X10171301Y-12040103D02*
X10152253Y-12049627D01*
X10352253Y-12173436D02*
X10361777Y-12182960D01*
X10361777Y-12182960D02*
X10352253Y-12192484D01*
X10352253Y-12192484D02*
X10342729Y-12182960D01*
X10342729Y-12182960D02*
X10352253Y-12173436D01*
X10352253Y-12173436D02*
X10352253Y-12192484D01*
X10476063Y-12078198D02*
X10457015Y-12068674D01*
X10457015Y-12068674D02*
X10447491Y-12059150D01*
X10447491Y-12059150D02*
X10437967Y-12040103D01*
X10437967Y-12040103D02*
X10437967Y-12030579D01*
X10437967Y-12030579D02*
X10447491Y-12011531D01*
X10447491Y-12011531D02*
X10457015Y-12002008D01*
X10457015Y-12002008D02*
X10476063Y-11992484D01*
X10476063Y-11992484D02*
X10514158Y-11992484D01*
X10514158Y-11992484D02*
X10533205Y-12002008D01*
X10533205Y-12002008D02*
X10542729Y-12011531D01*
X10542729Y-12011531D02*
X10552253Y-12030579D01*
X10552253Y-12030579D02*
X10552253Y-12040103D01*
X10552253Y-12040103D02*
X10542729Y-12059150D01*
X10542729Y-12059150D02*
X10533205Y-12068674D01*
X10533205Y-12068674D02*
X10514158Y-12078198D01*
X10514158Y-12078198D02*
X10476063Y-12078198D01*
X10476063Y-12078198D02*
X10457015Y-12087722D01*
X10457015Y-12087722D02*
X10447491Y-12097246D01*
X10447491Y-12097246D02*
X10437967Y-12116293D01*
X10437967Y-12116293D02*
X10437967Y-12154388D01*
X10437967Y-12154388D02*
X10447491Y-12173436D01*
X10447491Y-12173436D02*
X10457015Y-12182960D01*
X10457015Y-12182960D02*
X10476063Y-12192484D01*
X10476063Y-12192484D02*
X10514158Y-12192484D01*
X10514158Y-12192484D02*
X10533205Y-12182960D01*
X10533205Y-12182960D02*
X10542729Y-12173436D01*
X10542729Y-12173436D02*
X10552253Y-12154388D01*
X10552253Y-12154388D02*
X10552253Y-12116293D01*
X10552253Y-12116293D02*
X10542729Y-12097246D01*
X10542729Y-12097246D02*
X10533205Y-12087722D01*
X10533205Y-12087722D02*
X10514158Y-12078198D01*
X10676063Y-11992484D02*
X10695110Y-11992484D01*
X10695110Y-11992484D02*
X10714158Y-12002008D01*
X10714158Y-12002008D02*
X10723682Y-12011531D01*
X10723682Y-12011531D02*
X10733205Y-12030579D01*
X10733205Y-12030579D02*
X10742729Y-12068674D01*
X10742729Y-12068674D02*
X10742729Y-12116293D01*
X10742729Y-12116293D02*
X10733205Y-12154388D01*
X10733205Y-12154388D02*
X10723682Y-12173436D01*
X10723682Y-12173436D02*
X10714158Y-12182960D01*
X10714158Y-12182960D02*
X10695110Y-12192484D01*
X10695110Y-12192484D02*
X10676063Y-12192484D01*
X10676063Y-12192484D02*
X10657015Y-12182960D01*
X10657015Y-12182960D02*
X10647491Y-12173436D01*
X10647491Y-12173436D02*
X10637967Y-12154388D01*
X10637967Y-12154388D02*
X10628444Y-12116293D01*
X10628444Y-12116293D02*
X10628444Y-12068674D01*
X10628444Y-12068674D02*
X10637967Y-12030579D01*
X10637967Y-12030579D02*
X10647491Y-12011531D01*
X10647491Y-12011531D02*
X10657015Y-12002008D01*
X10657015Y-12002008D02*
X10676063Y-11992484D01*
X10866539Y-11992484D02*
X10885586Y-11992484D01*
X10885586Y-11992484D02*
X10904634Y-12002008D01*
X10904634Y-12002008D02*
X10914158Y-12011531D01*
X10914158Y-12011531D02*
X10923682Y-12030579D01*
X10923682Y-12030579D02*
X10933205Y-12068674D01*
X10933205Y-12068674D02*
X10933205Y-12116293D01*
X10933205Y-12116293D02*
X10923682Y-12154388D01*
X10923682Y-12154388D02*
X10914158Y-12173436D01*
X10914158Y-12173436D02*
X10904634Y-12182960D01*
X10904634Y-12182960D02*
X10885586Y-12192484D01*
X10885586Y-12192484D02*
X10866539Y-12192484D01*
X10866539Y-12192484D02*
X10847491Y-12182960D01*
X10847491Y-12182960D02*
X10837967Y-12173436D01*
X10837967Y-12173436D02*
X10828444Y-12154388D01*
X10828444Y-12154388D02*
X10818920Y-12116293D01*
X10818920Y-12116293D02*
X10818920Y-12068674D01*
X10818920Y-12068674D02*
X10828444Y-12030579D01*
X10828444Y-12030579D02*
X10837967Y-12011531D01*
X10837967Y-12011531D02*
X10847491Y-12002008D01*
X10847491Y-12002008D02*
X10866539Y-11992484D01*
X11018920Y-12192484D02*
X11018920Y-12059150D01*
X11018920Y-12078198D02*
X11028444Y-12068674D01*
X11028444Y-12068674D02*
X11047491Y-12059150D01*
X11047491Y-12059150D02*
X11076063Y-12059150D01*
X11076063Y-12059150D02*
X11095110Y-12068674D01*
X11095110Y-12068674D02*
X11104634Y-12087722D01*
X11104634Y-12087722D02*
X11104634Y-12192484D01*
X11104634Y-12087722D02*
X11114158Y-12068674D01*
X11114158Y-12068674D02*
X11133205Y-12059150D01*
X11133205Y-12059150D02*
X11161777Y-12059150D01*
X11161777Y-12059150D02*
X11180825Y-12068674D01*
X11180825Y-12068674D02*
X11190348Y-12087722D01*
X11190348Y-12087722D02*
X11190348Y-12192484D01*
X11285586Y-12192484D02*
X11285586Y-12059150D01*
X11285586Y-12078198D02*
X11295110Y-12068674D01*
X11295110Y-12068674D02*
X11314158Y-12059150D01*
X11314158Y-12059150D02*
X11342729Y-12059150D01*
X11342729Y-12059150D02*
X11361777Y-12068674D01*
X11361777Y-12068674D02*
X11371301Y-12087722D01*
X11371301Y-12087722D02*
X11371301Y-12192484D01*
X11371301Y-12087722D02*
X11380824Y-12068674D01*
X11380824Y-12068674D02*
X11399872Y-12059150D01*
X11399872Y-12059150D02*
X11428443Y-12059150D01*
X11428443Y-12059150D02*
X11447491Y-12068674D01*
X11447491Y-12068674D02*
X11457015Y-12087722D01*
X11457015Y-12087722D02*
X11457015Y-12192484D01*
X11847491Y-11982960D02*
X11676063Y-12240103D01*
X12104634Y-11992484D02*
X12123682Y-11992484D01*
X12123682Y-11992484D02*
X12142729Y-12002008D01*
X12142729Y-12002008D02*
X12152253Y-12011531D01*
X12152253Y-12011531D02*
X12161777Y-12030579D01*
X12161777Y-12030579D02*
X12171301Y-12068674D01*
X12171301Y-12068674D02*
X12171301Y-12116293D01*
X12171301Y-12116293D02*
X12161777Y-12154388D01*
X12161777Y-12154388D02*
X12152253Y-12173436D01*
X12152253Y-12173436D02*
X12142729Y-12182960D01*
X12142729Y-12182960D02*
X12123682Y-12192484D01*
X12123682Y-12192484D02*
X12104634Y-12192484D01*
X12104634Y-12192484D02*
X12085586Y-12182960D01*
X12085586Y-12182960D02*
X12076063Y-12173436D01*
X12076063Y-12173436D02*
X12066539Y-12154388D01*
X12066539Y-12154388D02*
X12057015Y-12116293D01*
X12057015Y-12116293D02*
X12057015Y-12068674D01*
X12057015Y-12068674D02*
X12066539Y-12030579D01*
X12066539Y-12030579D02*
X12076063Y-12011531D01*
X12076063Y-12011531D02*
X12085586Y-12002008D01*
X12085586Y-12002008D02*
X12104634Y-11992484D01*
X12257015Y-12173436D02*
X12266539Y-12182960D01*
X12266539Y-12182960D02*
X12257015Y-12192484D01*
X12257015Y-12192484D02*
X12247491Y-12182960D01*
X12247491Y-12182960D02*
X12257015Y-12173436D01*
X12257015Y-12173436D02*
X12257015Y-12192484D01*
X12390348Y-11992484D02*
X12409396Y-11992484D01*
X12409396Y-11992484D02*
X12428444Y-12002008D01*
X12428444Y-12002008D02*
X12437967Y-12011531D01*
X12437967Y-12011531D02*
X12447491Y-12030579D01*
X12447491Y-12030579D02*
X12457015Y-12068674D01*
X12457015Y-12068674D02*
X12457015Y-12116293D01*
X12457015Y-12116293D02*
X12447491Y-12154388D01*
X12447491Y-12154388D02*
X12437967Y-12173436D01*
X12437967Y-12173436D02*
X12428444Y-12182960D01*
X12428444Y-12182960D02*
X12409396Y-12192484D01*
X12409396Y-12192484D02*
X12390348Y-12192484D01*
X12390348Y-12192484D02*
X12371301Y-12182960D01*
X12371301Y-12182960D02*
X12361777Y-12173436D01*
X12361777Y-12173436D02*
X12352253Y-12154388D01*
X12352253Y-12154388D02*
X12342729Y-12116293D01*
X12342729Y-12116293D02*
X12342729Y-12068674D01*
X12342729Y-12068674D02*
X12352253Y-12030579D01*
X12352253Y-12030579D02*
X12361777Y-12011531D01*
X12361777Y-12011531D02*
X12371301Y-12002008D01*
X12371301Y-12002008D02*
X12390348Y-11992484D01*
X12523682Y-11992484D02*
X12657015Y-11992484D01*
X12657015Y-11992484D02*
X12571301Y-12192484D01*
X12771301Y-11992484D02*
X12790348Y-11992484D01*
X12790348Y-11992484D02*
X12809396Y-12002008D01*
X12809396Y-12002008D02*
X12818920Y-12011531D01*
X12818920Y-12011531D02*
X12828444Y-12030579D01*
X12828444Y-12030579D02*
X12837967Y-12068674D01*
X12837967Y-12068674D02*
X12837967Y-12116293D01*
X12837967Y-12116293D02*
X12828444Y-12154388D01*
X12828444Y-12154388D02*
X12818920Y-12173436D01*
X12818920Y-12173436D02*
X12809396Y-12182960D01*
X12809396Y-12182960D02*
X12790348Y-12192484D01*
X12790348Y-12192484D02*
X12771301Y-12192484D01*
X12771301Y-12192484D02*
X12752253Y-12182960D01*
X12752253Y-12182960D02*
X12742729Y-12173436D01*
X12742729Y-12173436D02*
X12733206Y-12154388D01*
X12733206Y-12154388D02*
X12723682Y-12116293D01*
X12723682Y-12116293D02*
X12723682Y-12068674D01*
X12723682Y-12068674D02*
X12733206Y-12030579D01*
X12733206Y-12030579D02*
X12742729Y-12011531D01*
X12742729Y-12011531D02*
X12752253Y-12002008D01*
X12752253Y-12002008D02*
X12771301Y-11992484D01*
X12933206Y-12192484D02*
X12971301Y-12192484D01*
X12971301Y-12192484D02*
X12990348Y-12182960D01*
X12990348Y-12182960D02*
X12999872Y-12173436D01*
X12999872Y-12173436D02*
X13018920Y-12144865D01*
X13018920Y-12144865D02*
X13028444Y-12106769D01*
X13028444Y-12106769D02*
X13028444Y-12030579D01*
X13028444Y-12030579D02*
X13018920Y-12011531D01*
X13018920Y-12011531D02*
X13009396Y-12002008D01*
X13009396Y-12002008D02*
X12990348Y-11992484D01*
X12990348Y-11992484D02*
X12952253Y-11992484D01*
X12952253Y-11992484D02*
X12933206Y-12002008D01*
X12933206Y-12002008D02*
X12923682Y-12011531D01*
X12923682Y-12011531D02*
X12914158Y-12030579D01*
X12914158Y-12030579D02*
X12914158Y-12078198D01*
X12914158Y-12078198D02*
X12923682Y-12097246D01*
X12923682Y-12097246D02*
X12933206Y-12106769D01*
X12933206Y-12106769D02*
X12952253Y-12116293D01*
X12952253Y-12116293D02*
X12990348Y-12116293D01*
X12990348Y-12116293D02*
X13009396Y-12106769D01*
X13009396Y-12106769D02*
X13018920Y-12097246D01*
X13018920Y-12097246D02*
X13028444Y-12078198D01*
X13104634Y-11992484D02*
X13104634Y-12030579D01*
X13180825Y-11992484D02*
X13180825Y-12030579D01*
X13476063Y-12268674D02*
X13466539Y-12259150D01*
X13466539Y-12259150D02*
X13447491Y-12230579D01*
X13447491Y-12230579D02*
X13437968Y-12211531D01*
X13437968Y-12211531D02*
X13428444Y-12182960D01*
X13428444Y-12182960D02*
X13418920Y-12135341D01*
X13418920Y-12135341D02*
X13418920Y-12097246D01*
X13418920Y-12097246D02*
X13428444Y-12049627D01*
X13428444Y-12049627D02*
X13437968Y-12021055D01*
X13437968Y-12021055D02*
X13447491Y-12002008D01*
X13447491Y-12002008D02*
X13466539Y-11973436D01*
X13466539Y-11973436D02*
X13476063Y-11963912D01*
X13657015Y-12192484D02*
X13542729Y-12192484D01*
X13599872Y-12192484D02*
X13599872Y-11992484D01*
X13599872Y-11992484D02*
X13580825Y-12021055D01*
X13580825Y-12021055D02*
X13561777Y-12040103D01*
X13561777Y-12040103D02*
X13542729Y-12049627D01*
X13895110Y-12192484D02*
X13895110Y-11992484D01*
X13980825Y-12192484D02*
X13980825Y-12087722D01*
X13980825Y-12087722D02*
X13971301Y-12068674D01*
X13971301Y-12068674D02*
X13952253Y-12059150D01*
X13952253Y-12059150D02*
X13923682Y-12059150D01*
X13923682Y-12059150D02*
X13904634Y-12068674D01*
X13904634Y-12068674D02*
X13895110Y-12078198D01*
X14104634Y-12192484D02*
X14085587Y-12182960D01*
X14085587Y-12182960D02*
X14076063Y-12173436D01*
X14076063Y-12173436D02*
X14066539Y-12154388D01*
X14066539Y-12154388D02*
X14066539Y-12097246D01*
X14066539Y-12097246D02*
X14076063Y-12078198D01*
X14076063Y-12078198D02*
X14085587Y-12068674D01*
X14085587Y-12068674D02*
X14104634Y-12059150D01*
X14104634Y-12059150D02*
X14133206Y-12059150D01*
X14133206Y-12059150D02*
X14152253Y-12068674D01*
X14152253Y-12068674D02*
X14161777Y-12078198D01*
X14161777Y-12078198D02*
X14171301Y-12097246D01*
X14171301Y-12097246D02*
X14171301Y-12154388D01*
X14171301Y-12154388D02*
X14161777Y-12173436D01*
X14161777Y-12173436D02*
X14152253Y-12182960D01*
X14152253Y-12182960D02*
X14133206Y-12192484D01*
X14133206Y-12192484D02*
X14104634Y-12192484D01*
X14285587Y-12192484D02*
X14266539Y-12182960D01*
X14266539Y-12182960D02*
X14257015Y-12163912D01*
X14257015Y-12163912D02*
X14257015Y-11992484D01*
X14437968Y-12182960D02*
X14418920Y-12192484D01*
X14418920Y-12192484D02*
X14380825Y-12192484D01*
X14380825Y-12192484D02*
X14361777Y-12182960D01*
X14361777Y-12182960D02*
X14352253Y-12163912D01*
X14352253Y-12163912D02*
X14352253Y-12087722D01*
X14352253Y-12087722D02*
X14361777Y-12068674D01*
X14361777Y-12068674D02*
X14380825Y-12059150D01*
X14380825Y-12059150D02*
X14418920Y-12059150D01*
X14418920Y-12059150D02*
X14437968Y-12068674D01*
X14437968Y-12068674D02*
X14447491Y-12087722D01*
X14447491Y-12087722D02*
X14447491Y-12106769D01*
X14447491Y-12106769D02*
X14352253Y-12125817D01*
X14514158Y-12268674D02*
X14523682Y-12259150D01*
X14523682Y-12259150D02*
X14542730Y-12230579D01*
X14542730Y-12230579D02*
X14552253Y-12211531D01*
X14552253Y-12211531D02*
X14561777Y-12182960D01*
X14561777Y-12182960D02*
X14571301Y-12135341D01*
X14571301Y-12135341D02*
X14571301Y-12097246D01*
X14571301Y-12097246D02*
X14561777Y-12049627D01*
X14561777Y-12049627D02*
X14552253Y-12021055D01*
X14552253Y-12021055D02*
X14542730Y-12002008D01*
X14542730Y-12002008D02*
X14523682Y-11973436D01*
X14523682Y-11973436D02*
X14514158Y-11963912D01*
X14876063Y-12268674D02*
X14866539Y-12259150D01*
X14866539Y-12259150D02*
X14847491Y-12230579D01*
X14847491Y-12230579D02*
X14837968Y-12211531D01*
X14837968Y-12211531D02*
X14828444Y-12182960D01*
X14828444Y-12182960D02*
X14818920Y-12135341D01*
X14818920Y-12135341D02*
X14818920Y-12097246D01*
X14818920Y-12097246D02*
X14828444Y-12049627D01*
X14828444Y-12049627D02*
X14837968Y-12021055D01*
X14837968Y-12021055D02*
X14847491Y-12002008D01*
X14847491Y-12002008D02*
X14866539Y-11973436D01*
X14866539Y-11973436D02*
X14876063Y-11963912D01*
X14952253Y-12059150D02*
X14952253Y-12192484D01*
X14952253Y-12078198D02*
X14961777Y-12068674D01*
X14961777Y-12068674D02*
X14980825Y-12059150D01*
X14980825Y-12059150D02*
X15009396Y-12059150D01*
X15009396Y-12059150D02*
X15028444Y-12068674D01*
X15028444Y-12068674D02*
X15037968Y-12087722D01*
X15037968Y-12087722D02*
X15037968Y-12192484D01*
X15161777Y-12192484D02*
X15142730Y-12182960D01*
X15142730Y-12182960D02*
X15133206Y-12173436D01*
X15133206Y-12173436D02*
X15123682Y-12154388D01*
X15123682Y-12154388D02*
X15123682Y-12097246D01*
X15123682Y-12097246D02*
X15133206Y-12078198D01*
X15133206Y-12078198D02*
X15142730Y-12068674D01*
X15142730Y-12068674D02*
X15161777Y-12059150D01*
X15161777Y-12059150D02*
X15190349Y-12059150D01*
X15190349Y-12059150D02*
X15209396Y-12068674D01*
X15209396Y-12068674D02*
X15218920Y-12078198D01*
X15218920Y-12078198D02*
X15228444Y-12097246D01*
X15228444Y-12097246D02*
X15228444Y-12154388D01*
X15228444Y-12154388D02*
X15218920Y-12173436D01*
X15218920Y-12173436D02*
X15209396Y-12182960D01*
X15209396Y-12182960D02*
X15190349Y-12192484D01*
X15190349Y-12192484D02*
X15161777Y-12192484D01*
X15285587Y-12059150D02*
X15361777Y-12059150D01*
X15314158Y-11992484D02*
X15314158Y-12163912D01*
X15314158Y-12163912D02*
X15323682Y-12182960D01*
X15323682Y-12182960D02*
X15342730Y-12192484D01*
X15342730Y-12192484D02*
X15361777Y-12192484D01*
X15580825Y-12059150D02*
X15580825Y-12259150D01*
X15580825Y-12068674D02*
X15599872Y-12059150D01*
X15599872Y-12059150D02*
X15637968Y-12059150D01*
X15637968Y-12059150D02*
X15657015Y-12068674D01*
X15657015Y-12068674D02*
X15666539Y-12078198D01*
X15666539Y-12078198D02*
X15676063Y-12097246D01*
X15676063Y-12097246D02*
X15676063Y-12154388D01*
X15676063Y-12154388D02*
X15666539Y-12173436D01*
X15666539Y-12173436D02*
X15657015Y-12182960D01*
X15657015Y-12182960D02*
X15637968Y-12192484D01*
X15637968Y-12192484D02*
X15599872Y-12192484D01*
X15599872Y-12192484D02*
X15580825Y-12182960D01*
X15790349Y-12192484D02*
X15771301Y-12182960D01*
X15771301Y-12182960D02*
X15761777Y-12163912D01*
X15761777Y-12163912D02*
X15761777Y-11992484D01*
X15952253Y-12192484D02*
X15952253Y-12087722D01*
X15952253Y-12087722D02*
X15942730Y-12068674D01*
X15942730Y-12068674D02*
X15923682Y-12059150D01*
X15923682Y-12059150D02*
X15885587Y-12059150D01*
X15885587Y-12059150D02*
X15866539Y-12068674D01*
X15952253Y-12182960D02*
X15933206Y-12192484D01*
X15933206Y-12192484D02*
X15885587Y-12192484D01*
X15885587Y-12192484D02*
X15866539Y-12182960D01*
X15866539Y-12182960D02*
X15857015Y-12163912D01*
X15857015Y-12163912D02*
X15857015Y-12144865D01*
X15857015Y-12144865D02*
X15866539Y-12125817D01*
X15866539Y-12125817D02*
X15885587Y-12116293D01*
X15885587Y-12116293D02*
X15933206Y-12116293D01*
X15933206Y-12116293D02*
X15952253Y-12106769D01*
X16018920Y-12059150D02*
X16095111Y-12059150D01*
X16047492Y-11992484D02*
X16047492Y-12163912D01*
X16047492Y-12163912D02*
X16057015Y-12182960D01*
X16057015Y-12182960D02*
X16076063Y-12192484D01*
X16076063Y-12192484D02*
X16095111Y-12192484D01*
X16237968Y-12182960D02*
X16218920Y-12192484D01*
X16218920Y-12192484D02*
X16180825Y-12192484D01*
X16180825Y-12192484D02*
X16161777Y-12182960D01*
X16161777Y-12182960D02*
X16152253Y-12163912D01*
X16152253Y-12163912D02*
X16152253Y-12087722D01*
X16152253Y-12087722D02*
X16161777Y-12068674D01*
X16161777Y-12068674D02*
X16180825Y-12059150D01*
X16180825Y-12059150D02*
X16218920Y-12059150D01*
X16218920Y-12059150D02*
X16237968Y-12068674D01*
X16237968Y-12068674D02*
X16247492Y-12087722D01*
X16247492Y-12087722D02*
X16247492Y-12106769D01*
X16247492Y-12106769D02*
X16152253Y-12125817D01*
X16418920Y-12192484D02*
X16418920Y-11992484D01*
X16418920Y-12182960D02*
X16399873Y-12192484D01*
X16399873Y-12192484D02*
X16361777Y-12192484D01*
X16361777Y-12192484D02*
X16342730Y-12182960D01*
X16342730Y-12182960D02*
X16333206Y-12173436D01*
X16333206Y-12173436D02*
X16323682Y-12154388D01*
X16323682Y-12154388D02*
X16323682Y-12097246D01*
X16323682Y-12097246D02*
X16333206Y-12078198D01*
X16333206Y-12078198D02*
X16342730Y-12068674D01*
X16342730Y-12068674D02*
X16361777Y-12059150D01*
X16361777Y-12059150D02*
X16399873Y-12059150D01*
X16399873Y-12059150D02*
X16418920Y-12068674D01*
X16495111Y-12268674D02*
X16504634Y-12259150D01*
X16504634Y-12259150D02*
X16523682Y-12230579D01*
X16523682Y-12230579D02*
X16533206Y-12211531D01*
X16533206Y-12211531D02*
X16542730Y-12182960D01*
X16542730Y-12182960D02*
X16552253Y-12135341D01*
X16552253Y-12135341D02*
X16552253Y-12097246D01*
X16552253Y-12097246D02*
X16542730Y-12049627D01*
X16542730Y-12049627D02*
X16533206Y-12021055D01*
X16533206Y-12021055D02*
X16523682Y-12002008D01*
X16523682Y-12002008D02*
X16504634Y-11973436D01*
X16504634Y-11973436D02*
X16495111Y-11963912D01*
M02*
